0
SECTION
2
HEADER
9
$INSUNITS
70
4
9
$ACADVER
1
AC1014
9
$HANDSEED
5
FFFF
0
ENDSEC
0
SECTION
2
TABLES
0
TABLE
2
VPORT
5
8
100
AcDbSymbolTable
0
ENDTAB
0
TABLE
2
LTYPE
5
5
100
AcDbSymbolTable
0
LTYPE
5
14
100
AcDbSymbolTableRecord
100
AcDbLinetypeTableRecord
2
BYBLOCK
70
0
0
LTYPE
5
15
100
AcDbSymbolTableRecord
100
AcDbLinetypeTableRecord
2
BYLAYER
70
0
0
ENDTAB
0
TABLE
2
LAYER
5
2
100
AcDbSymbolTable
70
2
0
LAYER
5
50
100
AcDbSymbolTableRecord
100
AcDbLayerTableRecord
2
0
70
0
6
CONTINUOUS
0
ENDTAB
0
TABLE
2
STYLE
5
3
100
AcDbSymbolTable
70
1
0
STYLE
5
11
100
AcDbSymbolTableRecord
100
AcDbTextStyleTableRecord
2
STANDARD
70
0
0
ENDTAB
0
TABLE
2
VIEW
5
6
100
AcDbSymbolTable
70
0
0
ENDTAB
0
TABLE
2
UCS
5
7
100
AcDbSymbolTable
70
0
0
ENDTAB
0
TABLE
2
APPID
5
9
100
AcDbSymbolTable
70
2
0
APPID
5
12
100
AcDbSymbolTableRecord
100
AcDbRegAppTableRecord
2
ACAD
70
0
0
ENDTAB
0
TABLE
2
DIMSTYLE
5
A
100
AcDbSymbolTable
70
1
0
ENDTAB
0
TABLE
2
BLOCK_RECORD
5
1
100
AcDbSymbolTable
70
1
0
BLOCK_RECORD
5
1F
100
AcDbSymbolTableRecord
100
AcDbBlockTableRecord
2
*MODEL_SPACE
0
BLOCK_RECORD
5
1B
100
AcDbSymbolTableRecord
100
AcDbBlockTableRecord
2
*PAPER_SPACE
0
ENDTAB
0
ENDSEC
0
SECTION
2
BLOCKS
0
BLOCK
5
20
100
AcDbEntity
100
AcDbBlockBegin
2
*MODEL_SPACE
0
ENDBLK
5
21
100
AcDbEntity
100
AcDbBlockEnd
0
BLOCK
5
1C
100
AcDbEntity
100
AcDbBlockBegin
2
*PAPER_SPACE
0
ENDBLK
5
1D
100
AcDbEntity
100
AcDbBlockEnd
0
ENDSEC
0
SECTION
2
ENTITIES
0
ARC
5
100
100
AcDbEntity
8
0
100
AcDbCircle
10
-275.01876605652831
20
-40.576364195136179
30
0
40
0.50000000000029232
210
0
220
0
230
1
100
AcDbArc
50
319.37894525422644
51
360
0
LINE
5
101
100
AcDbEntity
8
0
100
AcDbLine
10
-274.63925000000012
20
-40.901890788270386
30
0
11
-274.63925000000012
21
-41.550767932971659
31
3.2842932757612908e-46
0
SPLINE
5
102
100
AcDbEntity
8
0
100
AcDbSpline
70
0
71
3
72
14
73
10
74
0
42
0.000000001
43
0.0000000001
44
0.0000000001
40
0
40
0
40
0
40
0
40
0.021007352732917019
40
0.021007352732917019
40
0.04227027278241461
40
0.04227027278241461
40
0.062712058002518098
40
0.062712058002518098
40
0.083570929445807046
40
0.083570929445807046
40
0.083570929445807046
40
0.083570929445807046
10
-275.16958008589
20
-42.081098018861567
30
0
10
-275.09955557678029
20
-42.081098018861567
30
0
10
-275.0302194804417
20
-42.067229019138964
30
0
10
-274.90015977893415
20
-42.01302993908952
30
0
10
-274.84086117167794
20
-41.972925888646486
30
0
10
-274.74345636095131
20
-41.873740893260077
30
0
10
-274.70552687339921
20
-41.81637587338404
30
0
10
-274.65292363865973
20
-41.689153180903837
30
0
10
-274.63925000000012
20
-41.62029750444929
30
0
10
-274.63925000000012
20
-41.550767932971659
30
0
0
LINE
5
103
100
AcDbEntity
8
0
100
AcDbLine
10
-275.16958008589
20
-42.081098018861567
30
0
11
-289.25000000000011
21
-42.08109801886156
31
0
0
ARC
5
104
100
AcDbEntity
8
0
100
AcDbCircle
10
-289.25000000000017
20
-41.581098018861567
30
0
40
0.49999999999997158
210
0
220
0
230
1
100
AcDbArc
50
180
51
270.00000000000648
0
LINE
5
105
100
AcDbEntity
8
0
100
AcDbLine
10
-289.75000000000011
20
-41.58109801886156
30
0
11
-289.75000000000011
21
-28.581098018861574
31
9.4879781489074769e-80
0
ARC
5
106
100
AcDbEntity
8
0
100
AcDbCircle
10
-289.25000000000006
20
-28.581098018861621
30
0
40
0.50000000000004707
210
0
220
0
230
1
100
AcDbArc
50
90.000000000006523
51
180
0
LINE
5
107
100
AcDbEntity
8
0
100
AcDbLine
10
-289.25000000000011
20
-28.081098018861574
30
0
11
-282.20984264899801
21
-28.081098018861574
31
-5.8177037134417327e-32
0
LINE
5
108
100
AcDbEntity
8
0
100
AcDbLine
10
-282.20984264899801
20
-28.081098018861574
30
-5.8177037134417327e-32
11
-282.20984264899801
21
-28.080403526249906
31
0
0
LINE
5
109
100
AcDbEntity
8
0
100
AcDbLine
10
-282.20984264899801
20
-28.080403526249906
30
0
11
-281.51876605652808
21
-28.080403526249906
31
0
0
LINE
5
110
100
AcDbEntity
8
0
100
AcDbLine
10
-281.51876605652808
20
-28.080403526249906
30
0
11
-281.51876605652808
21
-26.576364195136239
31
0
0
ARC
5
111
100
AcDbEntity
8
0
100
AcDbCircle
10
-281.01876605652802
20
-26.5763641951363
30
2.3074762858142969e-75
40
0.50000000000003375
210
5.3345541759715263e-75
220
7.7787690973264738e-62
230
1
100
AcDbArc
50
90.000000000006523
51
180
0
LINE
5
112
100
AcDbEntity
8
0
100
AcDbLine
10
-281.01876605652808
20
-26.076364195136268
30
-3.8893845486632688e-62
11
-275.01876605652802
21
-26.076364195136268
31
0
0
ARC
5
113
100
AcDbEntity
8
0
100
AcDbCircle
10
-275.01876605652802
20
-26.576364195136225
30
3.8931827757615175e-63
40
0.49999999999997158
210
3.2924485850810933e-62
220
-5.6606014606335693e-49
230
1
100
AcDbArc
50
0
51
90
0
LINE
5
114
100
AcDbEntity
8
0
100
AcDbLine
10
-274.51876605652802
20
-26.576364195136239
30
-2.011049623942963e-62
11
-274.51876605652802
21
-40.576364195136264
31
0
0
LWPOLYLINE
5
115
100
AcDbEntity
8
0
100
AcDbPolyline
90
24
70
1
43
0.0
10
-249.55770470015335
20
-28.542985238843151
42
0.39244027214022831
10
-250.05630260605307
20
-28.080403526249839
10
-250.64276605652799
20
-28.080403526249906
10
-250.64276605652799
20
-26.576364195136239
42
0.41421356237306384
10
-251.14276605652805
20
-26.076364195136197
10
-257.14276605652799
20
-26.076364195136232
42
0.41421356237307427
10
-257.64276605652805
20
-26.576364195136239
10
-257.64276605652805
20
-28.080403526249906
10
-263.05630260605307
20
-28.080403526249906
42
0.031263447039427628
10
-263.11864645644442
20
-28.084305507388319
10
-267.59395875566162
20
-28.084305507388319
42
0.03126344703942853
10
-267.65630260605303
20
-28.080403526249871
10
-268.65630260605309
20
-28.080403526249906
42
0.031263447039427628
10
-268.71864645644445
20
-28.084305507388319
10
-272.57630260605305
20
-28.084305507388319
42
0.41421356237307427
10
-273.07630260605305
20
-28.584305507388326
10
-273.07630260605305
20
-41.584305507388336
42
0.019077206292440328
10
-273.07484790589274
20
-41.622418287500281
42
0.39244027208607291
10
-272.57625000000007
20
-42.085000000000008
10
-259.57625000000013
20
-42.085000000000001
42
0.0312634470393931
10
-259.51390614960866
20
-42.08109801886156
10
-250.05625000000009
20
-42.08109801886156
42
0.4142135623730222
10
-249.55625000000009
20
-41.58109801886156
10
-249.55625000000009
20
-28.581098018861574
42
0.019077206245267254
0
LWPOLYLINE
5
116
100
AcDbEntity
8
0
100
AcDbPolyline
90
30
70
1
43
0.0
10
-256.69645470049267
20
-85.69688721546008
42
0.39244026952397626
10
-257.19505260605308
20
-85.234305507388243
10
-257.78651605652806
20
-85.234305507388314
10
-257.78651605652806
20
-83.726364195136242
42
0.41421356237309509
10
-258.286516056528
20
-83.22636419513627
10
-264.28651605652806
20
-83.226364195136227
42
0.41421356237308465
10
-264.78651605652806
20
-83.726364195136242
10
-264.78651605652806
20
-85.234305507388314
10
-266.66270875566147
20
-85.234305507388342
42
0.031263447039500271
10
-266.725052606053
20
-85.230403526249887
10
-279.72505260605305
20
-85.230403526249887
42
0.031263447039285693
10
-279.78739645644441
20
-85.234305507388299
10
-281.66251605652798
20
-85.234305507388314
10
-281.66251605652798
20
-83.726364195136242
42
0.41421356237308465
10
-282.16251605652803
20
-83.226364195136227
10
-288.16251605652798
20
-83.226364195136227
42
0.41421356237309509
10
-288.66251605652798
20
-83.726364195136242
10
-288.66251605652798
20
-85.234305507388314
10
-289.24505260605309
20
-85.234305507388299
42
0.41421356237313667
10
-289.74505260605309
20
-85.734305507388314
10
-289.74505260605309
20
-98.734305507388314
42
0.019077203817458515
10
-289.74359790626301
20
-98.772418282567088
42
0.39244027494050276
10
-289.24500000000012
20
-99.235000000000014
10
-276.24500000000012
20
-99.235000000000014
42
0.031263447039357892
10
-276.18265614960876
20
-99.231098018861573
10
-270.25734385039152
20
-99.231098018861573
42
0.03126344703932224
10
-270.19500000000011
20
-99.235000000000014
10
-257.19500000000011
20
-99.235000000000014
42
0.41421356237310542
10
-256.69500000000011
20
-98.734999999999999
10
-256.69500000000011
20
-85.734999999999985
42
0.019077208514056129
0
LWPOLYLINE
5
117
100
AcDbEntity
8
0
100
AcDbPolyline
90
11
70
1
43
0.0
10
-11.931302606053116
20
-61.130403526249793
10
-16.667405924920828
20
-61.130403526249793
42
-0.013178902425048922
10
-16.693750000000048
20
-61.131098018861564
10
-29.693750000000048
20
-61.13109801886155
42
-0.39244027143488774
10
-30.192347905806606
20
-60.668516307487167
42
-0.019077206856962566
10
-30.193802606053062
20
-60.630403526249793
10
-30.193802606053058
20
-47.630403526249822
42
-0.41421356237311319
10
-29.693802606053019
20
-47.130403526249808
10
-11.931302606053045
20
-47.13040352624985
42
-0.41421356237309637
10
-11.431302606053073
20
-47.630403526249822
10
-11.431302606053075
20
-60.630403526249793
42
-0.41421356237311457
0
LWPOLYLINE
5
118
100
AcDbEntity
8
0
100
AcDbPolyline
90
8
70
1
43
0.0
10
-10.212802606053053
20
-60.630403526249793
10
-10.212802606053087
20
-47.630403526249822
42
-0.41421356237310414
10
-9.7128026060530814
20
-47.130403526249808
10
-8.7128026060530672
20
-47.130403526249808
42
-0.41421356237310281
10
-8.2128026060530601
20
-47.630403526249822
10
-8.2128026060530637
20
-60.630403526249793
42
-0.41421356237310281
10
-8.7128026060530672
20
-61.130403526249793
10
-9.7128026060530814
20
-61.130403526249793
42
-0.41421356237306645
0
LWPOLYLINE
5
119
100
AcDbEntity
8
0
100
AcDbPolyline
90
60
70
1
43
0.0
10
-6.4749999998416561
20
-7.4811617766848748
42
0.41421356237358992
10
-7.4749999998416605
20
-6.4811617766831873
10
-15.050000000000043
20
-6.4811617766831917
42
-0.41421356237309409
10
-16.05000000000004
20
-5.4811617766831899
10
-16.050000000000033
20
-2.4811617766831873
42
0.4142135623730942
10
-17.050000000000036
20
-1.4811617766831846
10
-91.199999999992286
20
-1.4811617766831864
42
0.41421356237309415
10
-92.199999999992286
20
-2.4811617766831873
10
-92.199999999992286
20
-5.4811617766831899
42
-0.41421356237309537
10
-93.199999999992272
20
-6.4811617766831908
10
-110.2499999999923
20
-6.4811617766831873
42
-0.41421356237309537
10
-111.2499999999923
20
-5.4811617766831899
10
-111.24999999999231
20
-2.4811617766831873
42
0.41421356237309437
10
-112.24999999999228
20
-1.481161776683193
10
-148.88003581414776
20
-1.4811617766831864
10
-150.88408084117771
20
-1.4805555525050529
42
0.0087816764466140309
10
-150.91919960631128
20
-1.4811617766831864
10
-186.44999999998527
20
-1.4811617766831819
42
0.41421356237336726
10
-187.44999999998524
20
-2.4811617766841825
10
-187.44999999998228
20
-5.4811617766821952
42
-0.41421356237338669
10
-188.44999999998231
20
-6.4811617766831908
10
-205.49999999998226
20
-6.481161776683205
42
-0.41421356237280399
10
-206.49999999998229
20
-5.4811617766841847
10
-206.49999999998528
20
-2.4811617766821925
42
0.41421356237278112
10
-207.49999999998528
20
-1.4811617766831793
10
-281.64999999997747
20
-1.4811617766831819
42
0.41421356237337609
10
-282.64999999997747
20
-2.4811617766841692
10
-282.64999999997457
20
-5.4811617766822129
42
-0.41421356237338153
10
-283.64999999997457
20
-6.4811617766831908
10
-291.22500000053043
20
-6.4811617766831908
42
0.4142135623747541
10
-292.22500000053049
20
-7.4811617766888183
10
-292.22500000000571
20
-100.73109801886892
42
0.41421356237146134
10
-291.22500000000571
20
-101.73109801886328
10
-283.64999999997457
20
-101.73109801886326
42
-0.41421356237338125
10
-282.64999999997457
20
-102.73109801886426
10
-282.64999999997752
20
-105.73109528290431
42
0.41421355631634688
10
-281.65000002065744
20
-106.73109528290532
10
-281.15000010340378
20
-106.73109529324526
10
-207.49999999998528
20
-106.73109801886157
42
0.41421356237278284
10
-206.49999999998528
20
-105.73109801886258
10
-206.49999999998229
20
-102.73109801886228
42
-0.41421356237280371
10
-205.49999999998226
20
-101.73109801886328
10
-188.44999999998231
20
-101.73109801886326
42
-0.41421356237338641
10
-187.44999999998228
20
-102.73109801886427
10
-187.44999999998527
20
-105.73109801886059
42
0.41421356237338641
10
-186.44999999998527
20
-106.73109801886159
10
-112.24999999999228
20
-106.73109801886157
42
0.41421356237309509
10
-111.2499999999923
20
-105.73109801886159
10
-111.2499999999923
20
-102.73109801886328
42
-0.41421356237309509
10
-110.2499999999923
20
-101.73109801886328
10
-93.199999999992272
20
-101.73109801886328
42
-0.41421356237309509
10
-92.199999999992286
20
-102.73109801886328
10
-92.199999999992301
20
-105.73109801886159
42
0.41421356237309509
10
-91.199999999992286
20
-106.73109801886157
10
-17.050000000000036
20
-106.73109801886157
42
0.41421356237309637
10
-16.050000000000036
20
-105.73109801886159
10
-16.050000000000036
20
-102.73109801886328
42
-0.4142135623730937
10
-15.050000000000043
20
-101.73109801886328
10
-7.4749999999983707
20
-101.73109801886328
42
0.41421356237261053
10
-6.4749999999983761
20
-100.73109801886497
0
LWPOLYLINE
5
120
100
AcDbEntity
8
0
100
AcDbPolyline
90
8
70
1
43
0.0
10
-31.912500000000055
20
-80.181098018861547
42
0.41421356237309759
10
-31.41250000000008
20
-79.681098018861576
10
-31.412500000000048
20
-66.681098018861562
42
0.41421356237309509
10
-31.912500000000055
20
-66.181098018861562
10
-32.912500000000051
20
-66.181098018861547
42
0.41421356237309509
10
-33.412500000000037
20
-66.681098018861562
10
-33.412500000000051
20
-79.681098018861562
42
0.41421356237309243
10
-32.912500000000037
20
-80.181098018861576
0
LWPOLYLINE
5
121
100
AcDbEntity
8
0
100
AcDbPolyline
90
8
70
1
43
0.0
10
-8.7125000000000501
20
-80.181098018861547
42
0.41421356237310542
10
-8.2125000000000696
20
-79.681098018861562
10
-8.2125000000000483
20
-66.681098018861562
42
0.41421356237309509
10
-8.7125000000000519
20
-66.181098018861562
10
-9.7125000000000501
20
-66.181098018861547
42
0.41421356237309959
10
-10.212500000000038
20
-66.681098018861562
10
-10.212500000000052
20
-79.681098018861562
42
0.41421356237309892
10
-9.7125000000000661
20
-80.181098018861576
0
LWPOLYLINE
5
122
100
AcDbEntity
8
0
100
AcDbPolyline
90
8
70
1
43
0.0
10
-34.29375000000006
20
-61.131098018861564
42
0.41421356237309759
10
-33.793750000000053
20
-60.631098018861564
10
-33.793750000000045
20
-47.631098018861557
42
0.4142135623731002
10
-34.29375000000006
20
-47.131098018861557
10
-35.293750000000053
20
-47.131098018861557
42
0.41421356237309759
10
-35.793750000000045
20
-47.631098018861557
10
-35.793750000000053
20
-60.631098018861564
42
0.41421356237308726
10
-35.293750000000074
20
-61.131098018861564
0
LWPOLYLINE
5
123
100
AcDbEntity
8
0
100
AcDbPolyline
90
8
70
1
43
0.0
10
-267.3875000000001
20
-79.681098018861562
42
0.41421356237311063
10
-266.8875000000001
20
-80.181098018861604
10
-265.8875000000001
20
-80.181098018861547
42
0.41421356237312629
10
-265.3875000000001
20
-79.681098018861562
10
-265.3875000000001
20
-66.681098018861562
42
0.41421356237312101
10
-265.8875000000001
20
-66.181098018861604
10
-266.8875000000001
20
-66.181098018861547
42
0.41421356237313145
10
-267.3875000000001
20
-66.681098018861562
0
LWPOLYLINE
5
124
100
AcDbEntity
8
0
100
AcDbPolyline
90
8
70
1
43
0.0
10
-66.700000000000045
20
-99.231098018861573
42
0.414213562373069
10
-66.200000000000031
20
-98.731098018861587
10
-66.20000000000006
20
-85.731098018861559
42
0.41421356237311585
10
-66.700000000000074
20
-85.231098018861573
10
-79.700000000000045
20
-85.231098018861573
42
0.41421356237311585
10
-80.200000000000045
20
-85.731098018861559
10
-80.200000000000045
20
-98.731098018861573
42
0.41421356237305862
10
-79.700000000000045
20
-99.231098018861573
0
LWPOLYLINE
5
125
100
AcDbEntity
8
0
100
AcDbPolyline
90
8
70
1
43
0.0
10
-38.125000000000057
20
-80.181098018861547
42
0.41421356237309759
10
-37.625000000000078
20
-79.681098018861576
10
-37.625000000000057
20
-66.681098018861562
42
0.41421356237309509
10
-38.125000000000057
20
-66.181098018861562
10
-51.12500000000005
20
-66.181098018861547
42
0.41421356237310542
10
-51.625000000000071
20
-66.681098018861562
10
-51.625000000000057
20
-79.681098018861562
42
0.41421356237308465
10
-51.125000000000057
20
-80.181098018861562
0
LWPOLYLINE
5
126
100
AcDbEntity
8
0
100
AcDbPolyline
90
8
70
1
43
0.0
10
-13.143250000000052
20
-41.081098018861574
42
0.41421356237309759
10
-12.643250000000048
20
-40.581098018861574
10
-12.64325000000005
20
-27.581098018861567
42
0.41421356237309759
10
-13.143250000000055
20
-27.081098018861567
10
-18.893250000000048
20
-27.081098018861567
42
0.41421356237309637
10
-19.393250000000055
20
-27.581098018861567
10
-19.393250000000052
20
-40.581098018861574
42
0.41421356237308982
10
-18.893250000000048
20
-41.081098018861567
0
LWPOLYLINE
5
127
100
AcDbEntity
8
0
100
AcDbPolyline
90
8
70
1
43
0.0
10
-21.456250000000054
20
-42.08109801886156
42
0.41421356237309509
10
-20.956250000000054
20
-41.58109801886156
10
-20.956250000000054
20
-28.581098018861574
42
0.41421356237308982
10
-21.456250000000043
20
-28.081098018861574
10
-34.456250000000054
20
-28.081098018861574
42
0.41421356237309509
10
-34.956250000000054
20
-28.581098018861574
10
-34.956250000000047
20
-41.58109801886156
42
0.41421356237309509
10
-34.456250000000054
20
-42.08109801886156
0
LWPOLYLINE
5
128
100
AcDbEntity
8
0
100
AcDbPolyline
90
8
70
1
43
0.0
10
-85.750000000000043
20
-99.231098018861573
42
0.4142135623730534
10
-85.250000000000043
20
-98.731098018861573
10
-85.250000000000043
20
-85.731098018861559
42
0.4142135623730534
10
-85.750000000000043
20
-85.231098018861559
10
-98.750000000000057
20
-85.231098018861573
42
0.41421356237309509
10
-99.250000000000043
20
-85.731098018861559
10
-99.250000000000043
20
-98.731098018861573
42
0.41421356237309509
10
-98.750000000000057
20
-99.231098018861559
0
LWPOLYLINE
5
129
100
AcDbEntity
8
0
100
AcDbPolyline
90
8
70
1
43
0.0
10
-76.225000000000051
20
-80.181098018861547
42
0.41421356237311063
10
-75.72500000000008
20
-79.681098018861562
10
-75.725000000000065
20
-66.681098018861562
42
0.41421356237310542
10
-76.22500000000008
20
-66.181098018861562
10
-89.225000000000065
20
-66.181098018861547
42
0.41421356237309509
10
-89.72500000000008
20
-66.681098018861562
10
-89.725000000000051
20
-79.681098018861562
42
0.41421356237308465
10
-89.225000000000065
20
-80.181098018861562
0
LWPOLYLINE
5
130
100
AcDbEntity
8
0
100
AcDbPolyline
90
8
70
1
43
0.0
10
-70.675000000000068
20
-79.681098018861562
42
0.41421356237309509
10
-70.175000000000054
20
-80.181098018861576
10
-57.175000000000054
20
-80.181098018861547
42
0.41421356237311585
10
-56.675000000000097
20
-79.681098018861562
10
-56.675000000000054
20
-66.681098018861562
42
0.4142135623731002
10
-57.175000000000068
20
-66.181098018861562
10
-70.175000000000054
20
-66.181098018861547
42
0.41421356237311063
10
-70.675000000000082
20
-66.681098018861562
0
LWPOLYLINE
5
131
100
AcDbEntity
8
0
100
AcDbPolyline
90
8
70
1
43
0.0
10
-47.650000000000048
20
-99.231098018861573
42
0.41421356237307427
10
-47.150000000000041
20
-98.731098018861573
10
-47.150000000000048
20
-85.731098018861559
42
0.41421356237310542
10
-47.650000000000063
20
-85.231098018861573
10
-60.650000000000055
20
-85.231098018861573
42
0.4142135623731002
10
-61.150000000000034
20
-85.731098018861559
10
-61.150000000000055
20
-98.731098018861573
42
0.41421356237309509
10
-60.650000000000063
20
-99.231098018861573
0
LWPOLYLINE
5
132
100
AcDbEntity
8
0
100
AcDbPolyline
90
8
70
1
43
0.0
10
-9.5500000000000504
20
-99.231098018861573
42
0.41421356237307289
10
-9.0500000000000451
20
-98.731098018861573
10
-9.0500000000000487
20
-85.731098018861559
42
0.41421356237306645
10
-9.5500000000000362
20
-85.231098018861573
10
-22.550000000000054
20
-85.231098018861573
42
0.41421356237309759
10
-23.05000000000005
20
-85.731098018861559
10
-23.05000000000005
20
-98.731098018861573
42
0.41421356237310542
10
-22.550000000000043
20
-99.231098018861573
0
LWPOLYLINE
5
133
100
AcDbEntity
8
0
100
AcDbPolyline
90
8
70
1
43
0.0
10
-14.31250000000005
20
-80.181098018861547
42
0.41421356237310542
10
-13.812500000000069
20
-79.681098018861562
10
-13.81250000000005
20
-66.681098018861562
42
0.41421356237308726
10
-14.312500000000039
20
-66.181098018861576
10
-27.312500000000057
20
-66.181098018861547
42
0.41421356237309509
10
-27.812500000000053
20
-66.681098018861562
10
-27.812500000000053
20
-79.681098018861562
42
0.41421356237308726
10
-27.312500000000046
20
-80.181098018861576
0
LWPOLYLINE
5
134
100
AcDbEntity
8
0
100
AcDbPolyline
90
8
70
1
43
0.0
10
-31.912500000000055
20
-23.031098018861577
42
0.41421356237309509
10
-31.412500000000058
20
-22.531098018861577
10
-31.412500000000048
20
-9.5310980188615666
42
0.41421356237309048
10
-31.912500000000055
20
-9.0310980188615595
10
-32.912500000000051
20
-9.0310980188615773
42
0.41421356237309048
10
-33.412500000000037
20
-9.5310980188615666
10
-33.412500000000051
20
-22.531098018861577
42
0.41421356237310542
10
-32.912500000000037
20
-23.031098018861577
0
LWPOLYLINE
5
135
100
AcDbEntity
8
0
100
AcDbPolyline
90
8
70
1
43
0.0
10
-28.600000000000048
20
-99.231098018861573
42
0.41421356237307161
10
-28.100000000000044
20
-98.731098018861573
10
-28.100000000000051
20
-85.731098018861559
42
0.4142135623731002
10
-28.600000000000048
20
-85.231098018861573
10
-41.600000000000051
20
-85.231098018861573
42
0.41421356237309509
10
-42.100000000000065
20
-85.731098018861559
10
-42.100000000000051
20
-98.731098018861573
42
0.41421356237310542
10
-41.600000000000051
20
-99.231098018861573
0
LWPOLYLINE
5
136
100
AcDbEntity
8
0
100
AcDbPolyline
90
8
70
1
43
0.0
10
-10.212500000000052
20
-22.531098018861577
42
0.41421356237309243
10
-9.7125000000000501
20
-23.031098018861577
10
-8.7125000000000501
20
-23.031098018861577
42
0.41421356237309637
10
-8.2125000000000448
20
-22.531098018861577
10
-8.2125000000000483
20
-9.5310980188615666
42
0.41421356237309509
10
-8.7125000000000519
20
-9.0310980188615666
10
-9.7125000000000501
20
-9.0310980188615773
42
0.41421356237309509
10
-10.212500000000038
20
-9.5310980188615666
0
LWPOLYLINE
5
137
100
AcDbEntity
8
0
100
AcDbPolyline
90
8
70
1
43
0.0
10
-271.48750000000007
20
-80.181098018861547
42
0.41421356237310542
10
-270.98750000000007
20
-79.681098018861562
10
-270.98750000000007
20
-66.681098018861562
42
0.41421356237312101
10
-271.48750000000007
20
-66.181098018861562
10
-284.48750000000007
20
-66.181098018861547
42
0.41421356237313145
10
-284.98750000000007
20
-66.681098018861562
10
-284.98750000000007
20
-79.681098018861562
42
0.41421356237308465
10
-284.48750000000007
20
-80.181098018861562
0
LWPOLYLINE
5
138
100
AcDbEntity
8
0
100
AcDbPolyline
90
8
70
1
43
0.0
10
-265.8875000000001
20
-23.031098018861577
42
0.41421356237307683
10
-265.38750000000005
20
-22.531098018861577
10
-265.3875000000001
20
-9.5310980188615666
42
0.41421356237311718
10
-265.8875000000001
20
-9.0310980188615773
10
-266.8875000000001
20
-9.0310980188615773
42
0.4142135623730781
10
-267.3875000000001
20
-9.5310980188615666
10
-267.3875000000001
20
-22.531098018861577
42
0.41421356237313145
10
-266.8875000000001
20
-23.031098018861584
0
LWPOLYLINE
5
139
100
AcDbEntity
8
0
100
AcDbPolyline
90
8
70
1
43
0.0
10
-289.08750000000009
20
-80.181098018861547
42
0.41421356237312629
10
-288.58750000000009
20
-79.681098018861562
10
-288.58750000000009
20
-66.681098018861562
42
0.41421356237313145
10
-289.08750000000009
20
-66.181098018861562
10
-290.08750000000009
20
-66.181098018861547
42
0.41421356237313145
10
-290.58750000000009
20
-66.681098018861562
10
-290.58750000000009
20
-79.681098018861562
42
0.41421356237308465
10
-290.08750000000009
20
-80.181098018861562
0
LWPOLYLINE
5
140
100
AcDbEntity
8
0
100
AcDbPolyline
90
8
70
1
43
0.0
10
-95.275000000000048
20
-80.181098018861547
42
0.41421356237308982
10
-94.775000000000063
20
-79.681098018861562
10
-94.775000000000063
20
-66.681098018861562
42
0.4142135623731002
10
-95.275000000000048
20
-66.181098018861562
10
-108.27500000000006
20
-66.181098018861547
42
0.41421356237307427
10
-108.77500000000006
20
-66.681098018861562
10
-108.77500000000006
20
-79.681098018861562
42
0.41421356237305862
10
-108.27500000000006
20
-80.181098018861562
0
LWPOLYLINE
5
141
100
AcDbEntity
8
0
100
AcDbPolyline
90
8
70
1
43
0.0
10
-204.81250000000006
20
-42.08109801886156
42
0.41421356237307427
10
-204.31250000000003
20
-41.58109801886156
10
-204.31250000000009
20
-28.581098018861574
42
0.41421356237311846
10
-204.81250000000006
20
-28.081098018861603
10
-217.81250000000006
20
-28.081098018861574
42
0.41421356237304557
10
-218.31250000000009
20
-28.581098018861574
10
-218.31250000000009
20
-41.58109801886156
42
0.41421356237312101
10
-217.81250000000006
20
-42.08109801886156
0
LWPOLYLINE
5
142
100
AcDbEntity
8
0
100
AcDbPolyline
90
8
70
1
43
0.0
10
-185.7625000000001
20
-42.08109801886156
42
0.4142135623730222
10
-185.2625000000001
20
-41.58109801886156
10
-185.26250000000007
20
-28.581098018861574
42
0.4142135623731002
10
-185.7625000000001
20
-28.081098018861574
10
-198.7625000000001
20
-28.081098018861574
42
0.41421356237307683
10
-199.2625000000001
20
-28.581098018861574
10
-199.2625000000001
20
-41.58109801886156
42
0.41421356237313145
10
-198.7625000000001
20
-42.081098018861567
0
LWPOLYLINE
5
143
100
AcDbEntity
8
0
100
AcDbPolyline
90
8
70
1
43
0.0
10
-218.2625000000001
20
-23.031098018861577
42
0.41421356237304557
10
-217.76250000000007
20
-22.531098018861577
10
-217.76250000000007
20
-9.5310980188615666
42
0.41421356237310153
10
-218.2625000000001
20
-9.0310980188615595
10
-219.2625000000001
20
-9.0310980188615773
42
0.41421356237304691
10
-219.7625000000001
20
-9.5310980188615666
10
-219.7625000000001
20
-22.531098018861577
42
0.4142135623731002
10
-219.2625000000001
20
-23.031098018861577
0
LWPOLYLINE
5
144
100
AcDbEntity
8
0
100
AcDbPolyline
90
8
70
1
43
0.0
10
-171.47500000000008
20
-80.181098018861547
42
0.41421356237310542
10
-170.97500000000011
20
-79.681098018861562
10
-170.97500000000008
20
-66.681098018861562
42
0.41421356237312101
10
-171.47500000000008
20
-66.181098018861562
10
-184.47500000000005
20
-66.181098018861547
42
0.41421356237312101
10
-184.97500000000005
20
-66.681098018861562
10
-184.97500000000005
20
-79.681098018861562
42
0.4142135623731002
10
-184.47500000000005
20
-80.181098018861562
0
LWPOLYLINE
5
145
100
AcDbEntity
8
0
100
AcDbPolyline
90
8
70
1
43
0.0
10
-289.08750000000009
20
-23.031098018861577
42
0.41421356237307683
10
-288.58750000000003
20
-22.531098018861577
10
-288.58750000000009
20
-9.5310980188615666
42
0.41421356237313273
10
-289.08750000000009
20
-9.0310980188615773
10
-290.08750000000009
20
-9.0310980188615773
42
0.4142135623730781
10
-290.58750000000009
20
-9.5310980188615666
10
-290.58750000000009
20
-22.531098018861577
42
0.41421356237311846
10
-290.08750000000009
20
-23.031098018861549
0
LWPOLYLINE
5
146
100
AcDbEntity
8
0
100
AcDbPolyline
90
8
70
1
43
0.0
10
-161.45000000000007
20
-85.731098018861559
10
-161.45000000000005
20
-98.731098018861573
42
-0.41421356237308465
10
-161.95000000000007
20
-99.231098018861573
10
-174.95000000000007
20
-99.231098018861573
42
-0.41421356237309509
10
-175.4500000000001
20
-98.731098018861573
10
-175.4500000000001
20
-85.731098018861559
42
-0.41421356237307427
10
-174.95000000000007
20
-85.231098018861573
10
-161.95000000000007
20
-85.231098018861573
42
-0.41421356237308465
0
LWPOLYLINE
5
147
100
AcDbEntity
8
0
100
AcDbPolyline
90
8
70
1
43
0.0
10
-147.66250000000005
20
-42.08109801886156
42
0.4142135623731002
10
-147.16250000000005
20
-41.58109801886156
10
-147.16250000000005
20
-28.581098018861574
42
0.41421356237307161
10
-147.66250000000005
20
-28.081098018861567
10
-160.66250000000008
20
-28.081098018861574
42
0.41421356237307683
10
-161.16250000000005
20
-28.581098018861574
10
-161.16250000000005
20
-41.58109801886156
42
0.41421356237312101
10
-160.66250000000008
20
-42.08109801886156
0
LWPOLYLINE
5
148
100
AcDbEntity
8
0
100
AcDbPolyline
90
8
70
1
43
0.0
10
-128.61250000000007
20
-42.08109801886156
42
0.4142135623731002
10
-128.11250000000007
20
-41.58109801886156
10
-128.11250000000007
20
-28.581098018861574
42
0.41421356237307161
10
-128.61250000000007
20
-28.081098018861567
10
-141.61250000000007
20
-28.081098018861574
42
0.41421356237310542
10
-142.11250000000004
20
-28.581098018861574
10
-142.11250000000007
20
-41.58109801886156
42
0.41421356237309509
10
-141.61250000000007
20
-42.08109801886156
0
LWPOLYLINE
5
149
100
AcDbEntity
8
0
100
AcDbPolyline
90
8
70
1
43
0.0
10
-247.17500000000007
20
-66.681098018861562
10
-247.17500000000007
20
-79.681098018861562
42
-0.41421356237312629
10
-247.6750000000001
20
-80.181098018861547
10
-260.67500000000007
20
-80.181098018861576
42
-0.4142135623731002
10
-261.17500000000013
20
-79.681098018861562
10
-261.17500000000013
20
-66.681098018861562
42
-0.41421356237312101
10
-260.67500000000007
20
-66.181098018861547
10
-247.6750000000001
20
-66.181098018861562
42
-0.41421356237313145
0
LWPOLYLINE
5
150
100
AcDbEntity
8
0
100
AcDbPolyline
90
8
70
1
43
0.0
10
-80.987500000000068
20
-61.131098018861564
42
0.41421356237310542
10
-80.487500000000054
20
-60.631098018861564
10
-80.487500000000054
20
-47.631098018861557
42
0.41421356237311063
10
-80.987500000000082
20
-47.131098018861557
10
-93.987500000000068
20
-47.131098018861557
42
0.41421356237310542
10
-94.487500000000054
20
-47.631098018861557
10
-94.487500000000054
20
-60.631098018861564
42
0.41421356237311063
10
-93.987500000000068
20
-61.13109801886155
0
LWPOLYLINE
5
151
100
AcDbEntity
8
0
100
AcDbPolyline
90
8
70
1
43
0.0
10
-151.63750000000007
20
-60.631098018861564
42
0.4142135623731002
10
-151.13750000000007
20
-61.131098018861579
10
-138.13750000000007
20
-61.131098018861564
42
0.41421356237310542
10
-137.63750000000007
20
-60.631098018861564
10
-137.63750000000007
20
-47.631098018861557
42
0.41421356237307944
10
-138.13750000000007
20
-47.131098018861557
10
-151.13750000000007
20
-47.131098018861557
42
0.41421356237310542
10
-151.63750000000007
20
-47.631098018861557
0
LWPOLYLINE
5
152
100
AcDbEntity
8
0
100
AcDbPolyline
90
8
70
1
43
0.0
10
-104.80000000000005
20
-99.231098018861573
42
0.4142135623730534
10
-104.30000000000005
20
-98.731098018861573
10
-104.30000000000007
20
-85.731098018861559
42
0.41421356237309509
10
-104.80000000000005
20
-85.231098018861573
10
-117.80000000000007
20
-85.231098018861573
42
0.41421356237309509
10
-118.30000000000007
20
-85.731098018861559
10
-118.30000000000007
20
-98.731098018861573
42
0.4142135623730534
10
-117.80000000000007
20
-99.231098018861573
0
LWPOLYLINE
5
153
100
AcDbEntity
8
0
100
AcDbPolyline
90
8
70
1
43
0.0
10
-228.62500000000009
20
-80.181098018861547
42
0.41421356237312629
10
-228.12500000000006
20
-79.681098018861562
10
-228.12500000000006
20
-66.681098018861562
42
0.41421356237313145
10
-228.62500000000009
20
-66.181098018861562
10
-241.62500000000009
20
-66.181098018861547
42
0.41421356237312101
10
-242.12500000000009
20
-66.681098018861562
10
-242.12500000000009
20
-79.681098018861562
42
0.4142135623731002
10
-241.62500000000009
20
-80.181098018861604
0
LWPOLYLINE
5
154
100
AcDbEntity
8
0
100
AcDbPolyline
90
8
70
1
43
0.0
10
-241.46250000000009
20
-23.031098018861577
42
0.41421356237304557
10
-240.96250000000009
20
-22.531098018861577
10
-240.96250000000009
20
-9.5310980188615666
42
0.41421356237310153
10
-241.46250000000009
20
-9.0310980188615773
10
-242.46250000000006
20
-9.0310980188615773
42
0.4142135623730781
10
-242.96250000000009
20
-9.5310980188615666
10
-242.96250000000009
20
-22.531098018861577
42
0.41421356237313145
10
-242.46250000000006
20
-23.031098018861577
0
LWPOLYLINE
5
155
100
AcDbEntity
8
0
100
AcDbPolyline
90
8
70
1
43
0.0
10
-264.34375000000011
20
-61.131098018861564
42
0.4142135623730222
10
-263.84375000000011
20
-60.631098018861564
10
-263.84375000000011
20
-47.631098018861557
42
0.41421356237312629
10
-264.34375000000011
20
-47.131098018861564
10
-277.34375000000011
20
-47.131098018861557
42
0.41421356237307427
10
-277.84375000000011
20
-47.631098018861557
10
-277.84375000000011
20
-60.631098018861564
42
0.41421356237313667
10
-277.34375000000011
20
-61.131098018861564
0
LWPOLYLINE
5
156
100
AcDbEntity
8
0
100
AcDbPolyline
90
8
70
1
43
0.0
10
-238.15000000000009
20
-99.231098018861573
42
0.41421356237309509
10
-237.65000000000009
20
-98.731098018861573
10
-237.65000000000009
20
-85.731098018861559
42
0.41421356237309509
10
-238.15000000000009
20
-85.231098018861559
10
-251.15000000000009
20
-85.231098018861573
42
0.41421356237304296
10
-251.65000000000006
20
-85.731098018861559
10
-251.65000000000009
20
-98.731098018861573
42
0.41421356237308465
10
-251.15000000000009
20
-99.231098018861573
0
LWPOLYLINE
5
157
100
AcDbEntity
8
0
100
AcDbPolyline
90
12
70
1
43
0.0
10
-285.72538974532523
20
-60.126364195136219
10
-285.78126605652807
20
-60.126364195136247
42
-0.41421356237307427
10
-286.28126605652801
20
-59.626364195136233
10
-286.28126605652801
20
-45.626364195136247
42
-0.41421356237306384
10
-285.78126605652801
20
-45.126364195136247
10
-279.78126605652801
20
-45.126364195136247
42
-0.41421356237313667
10
-279.28126605652801
20
-45.626364195136247
10
-279.28126605652801
20
-59.626364195136233
42
-0.41421356237307944
10
-279.78126605652801
20
-60.126364195136247
10
-279.83811025467531
20
-60.126364195136254
42
-0.034442203505622576
10
-279.9067500000001
20
-60.131098018861564
10
-285.6567500000001
20
-60.131098018861586
42
-0.034442203505769965
0
LWPOLYLINE
5
158
100
AcDbEntity
8
0
100
AcDbPolyline
90
12
70
1
43
0.0
10
-261.84938974532463
20
-60.126364195136247
10
-261.90526605652798
20
-60.126364195136226
42
-0.41421356237316787
10
-262.40526605652803
20
-59.626364195136233
10
-262.40526605652803
20
-45.626364195136247
42
-0.41421356237306384
10
-261.90526605652803
20
-45.126364195136247
10
-255.90526605652803
20
-45.126364195136247
42
-0.41421356237319912
10
-255.40526605652801
20
-45.626364195136247
10
-255.40526605652801
20
-59.626364195136233
42
-0.4142135623730378
10
-255.90526605652798
20
-60.126364195136247
10
-255.96211025467522
20
-60.126364195136247
42
-0.034442203505749516
10
-256.03075000000007
20
-60.131098018861564
10
-261.78075000000013
20
-60.131098018861522
42
-0.034442203505578681
0
LWPOLYLINE
5
159
100
AcDbEntity
8
0
100
AcDbPolyline
90
8
70
1
43
0.0
10
-100.03750000000005
20
-61.131098018861564
42
0.41421356237310542
10
-99.537500000000065
20
-60.631098018861564
10
-99.537500000000065
20
-47.631098018861557
42
0.41421356237309509
10
-100.03750000000005
20
-47.131098018861564
10
-113.03750000000007
20
-47.131098018861557
42
0.41421356237310542
10
-113.53750000000007
20
-47.631098018861557
10
-113.53750000000007
20
-60.631098018861564
42
0.41421356237307944
10
-113.03750000000007
20
-61.131098018861572
0
LWPOLYLINE
5
160
100
AcDbEntity
8
0
100
AcDbPolyline
90
8
70
1
43
0.0
10
-208.78750000000008
20
-60.631098018861564
42
0.41421356237312629
10
-208.28750000000008
20
-61.13109801886155
10
-195.28750000000005
20
-61.131098018861564
42
0.41421356237307427
10
-194.78750000000005
20
-60.631098018861564
10
-194.78750000000005
20
-47.631098018861557
42
0.41421356237313667
10
-195.28750000000005
20
-47.131098018861564
10
-208.28750000000008
20
-47.131098018861557
42
0.4142135623730222
10
-208.78750000000008
20
-47.631098018861557
0
LWPOLYLINE
5
161
100
AcDbEntity
8
0
100
AcDbPolyline
90
8
70
1
43
0.0
10
-214.33750000000006
20
-61.131098018861564
42
0.41421356237307427
10
-213.83750000000003
20
-60.631098018861564
10
-213.83750000000009
20
-47.631098018861557
42
0.41421356237312101
10
-214.33750000000006
20
-47.131098018861564
10
-227.33750000000009
20
-47.131098018861557
42
0.4142135623730222
10
-227.83750000000009
20
-47.631098018861557
10
-227.83750000000009
20
-60.631098018861564
42
0.41421356237312629
10
-227.33750000000009
20
-61.131098018861572
0
LWPOLYLINE
5
162
100
AcDbEntity
8
0
100
AcDbPolyline
90
8
70
1
43
0.0
10
-190.52500000000009
20
-80.181098018861547
42
0.41421356237310542
10
-190.02500000000012
20
-79.681098018861562
10
-190.02500000000009
20
-66.681098018861562
42
0.41421356237312101
10
-190.52500000000009
20
-66.181098018861562
10
-203.52500000000009
20
-66.181098018861547
42
0.41421356237313145
10
-204.02500000000006
20
-66.681098018861562
10
-204.02500000000006
20
-79.681098018861562
42
0.41421356237308465
10
-203.52500000000009
20
-80.181098018861562
0
LWPOLYLINE
5
163
100
AcDbEntity
8
0
100
AcDbPolyline
90
8
70
1
43
0.0
10
-209.5750000000001
20
-80.181098018861547
42
0.41421356237310542
10
-209.07500000000013
20
-79.681098018861562
10
-209.0750000000001
20
-66.681098018861562
42
0.41421356237312101
10
-209.5750000000001
20
-66.181098018861562
10
-222.5750000000001
20
-66.181098018861547
42
0.41421356237313145
10
-223.07500000000007
20
-66.681098018861562
10
-223.07500000000007
20
-79.681098018861562
42
0.41421356237308465
10
-222.5750000000001
20
-80.181098018861562
0
LWPOLYLINE
5
164
100
AcDbEntity
8
0
100
AcDbPolyline
90
8
70
1
43
0.0
10
-219.10000000000008
20
-99.231098018861573
42
0.41421356237309509
10
-218.60000000000008
20
-98.731098018861573
10
-218.60000000000008
20
-85.731098018861559
42
0.41421356237309509
10
-219.10000000000008
20
-85.231098018861573
10
-232.10000000000008
20
-85.231098018861573
42
0.41421356237304296
10
-232.60000000000005
20
-85.731098018861559
10
-232.60000000000008
20
-98.731098018861573
42
0.41421356237308465
10
-232.10000000000008
20
-99.231098018861573
0
LWPOLYLINE
5
165
100
AcDbEntity
8
0
100
AcDbPolyline
90
8
70
1
43
0.0
10
-156.40000000000006
20
-98.731098018861573
42
0.4142135623730534
10
-155.90000000000006
20
-99.231098018861573
10
-142.90000000000006
20
-99.231098018861573
42
0.41421356237307427
10
-142.40000000000006
20
-98.731098018861573
10
-142.40000000000006
20
-85.731098018861559
42
0.41421356237307427
10
-142.90000000000006
20
-85.231098018861559
10
-155.90000000000006
20
-85.231098018861573
42
0.41421356237309509
10
-156.40000000000006
20
-85.731098018861559
0
LWPOLYLINE
5
166
100
AcDbEntity
8
0
100
AcDbPolyline
90
8
70
1
43
0.0
10
-181.00000000000009
20
-99.231098018861573
42
0.41421356237308465
10
-180.50000000000006
20
-98.731098018861573
10
-180.50000000000009
20
-85.731098018861559
42
0.41421356237308465
10
-181.00000000000009
20
-85.231098018861559
10
-194.00000000000006
20
-85.231098018861573
42
0.41421356237304296
10
-194.50000000000006
20
-85.731098018861559
10
-194.50000000000006
20
-98.731098018861573
42
0.41421356237308465
10
-194.00000000000006
20
-99.231098018861573
0
LWPOLYLINE
5
167
100
AcDbEntity
8
0
100
AcDbPolyline
90
8
70
1
43
0.0
10
-56.337500000000055
20
-23.031098018861577
42
0.41421356237309509
10
-55.837500000000055
20
-22.531098018861577
10
-55.837500000000055
20
-9.5310980188615666
42
0.41421356237308982
10
-56.337500000000048
20
-9.0310980188615666
10
-57.337500000000063
20
-9.0310980188615773
42
0.41421356237308526
10
-57.837500000000034
20
-9.5310980188615666
10
-57.837500000000055
20
-22.531098018861577
42
0.41421356237309759
10
-57.337500000000063
20
-23.031098018861577
0
LWPOLYLINE
5
168
100
AcDbEntity
8
0
100
AcDbPolyline
90
8
70
1
43
0.0
10
-119.08750000000006
20
-61.131098018861564
42
0.41421356237310542
10
-118.58750000000008
20
-60.631098018861564
10
-118.58750000000006
20
-47.631098018861557
42
0.41421356237307944
10
-119.08750000000006
20
-47.131098018861564
10
-132.08750000000006
20
-47.131098018861557
42
0.41421356237310542
10
-132.58750000000006
20
-47.631098018861557
10
-132.58750000000006
20
-60.631098018861564
42
0.4142135623731002
10
-132.08750000000006
20
-61.131098018861572
0
LWPOLYLINE
5
169
100
AcDbEntity
8
0
100
AcDbPolyline
90
8
70
1
43
0.0
10
-84.962500000000048
20
-41.58109801886156
42
0.41421356237307427
10
-84.462500000000048
20
-42.081098018861567
10
-71.462500000000063
20
-42.08109801886156
42
0.41421356237309509
10
-70.962500000000063
20
-41.58109801886156
10
-70.962500000000063
20
-28.581098018861574
42
0.41421356237310802
10
-71.462500000000077
20
-28.081098018861574
10
-84.462500000000048
20
-28.081098018861574
42
0.4142135623731002
10
-84.962500000000048
20
-28.581098018861574
0
LWPOLYLINE
5
170
100
AcDbEntity
8
0
100
AcDbPolyline
90
8
70
1
43
0.0
10
-109.56250000000006
20
-42.08109801886156
42
0.4142135623731002
10
-109.06250000000007
20
-41.58109801886156
10
-109.06250000000006
20
-28.581098018861574
42
0.41421356237307161
10
-109.56250000000006
20
-28.081098018861567
10
-122.56250000000006
20
-28.081098018861574
42
0.41421356237310542
10
-123.06250000000004
20
-28.581098018861574
10
-123.06250000000006
20
-41.58109801886156
42
0.41421356237309509
10
-122.56250000000006
20
-42.081098018861567
0
LWPOLYLINE
5
171
100
AcDbEntity
8
0
100
AcDbPolyline
90
8
70
1
43
0.0
10
-200.0500000000001
20
-99.231098018861573
42
0.41421356237308465
10
-199.55000000000007
20
-98.731098018861573
10
-199.5500000000001
20
-85.731098018861559
42
0.41421356237308465
10
-200.0500000000001
20
-85.231098018861559
10
-213.0500000000001
20
-85.231098018861573
42
0.41421356237307427
10
-213.55000000000007
20
-85.731098018861559
10
-213.55000000000007
20
-98.731098018861573
42
0.41421356237311585
10
-213.0500000000001
20
-99.231098018861573
0
LWPOLYLINE
5
172
100
AcDbEntity
8
0
100
AcDbPolyline
90
8
70
1
43
0.0
10
-223.86250000000007
20
-42.08109801886156
42
0.41421356237307427
10
-223.36250000000004
20
-41.58109801886156
10
-223.3625000000001
20
-28.581098018861574
42
0.41421356237311846
10
-223.86250000000007
20
-28.081098018861574
10
-236.86250000000007
20
-28.081098018861574
42
0.41421356237304557
10
-237.3625000000001
20
-28.581098018861574
10
-237.3625000000001
20
-41.58109801886156
42
0.41421356237312101
10
-236.86250000000007
20
-42.081098018861567
0
LWPOLYLINE
5
173
100
AcDbEntity
8
0
100
AcDbPolyline
90
8
70
1
43
0.0
10
-79.537500000000051
20
-23.031098018861577
42
0.41421356237309759
10
-79.037500000000051
20
-22.531098018861577
10
-79.037500000000051
20
-9.5310980188615666
42
0.41421356237308526
10
-79.537500000000051
20
-9.0310980188615773
10
-80.537500000000065
20
-9.0310980188615773
42
0.41421356237309959
10
-81.037500000000037
20
-9.5310980188615666
10
-81.037500000000051
20
-22.531098018861577
42
0.41421356237309759
10
-80.537500000000065
20
-23.031098018861567
0
LWPOLYLINE
5
174
100
AcDbEntity
8
0
100
AcDbPolyline
90
8
70
1
43
0.0
10
-133.37500000000006
20
-80.181098018861547
42
0.41421356237308465
10
-132.87500000000006
20
-79.681098018861562
10
-132.87500000000006
20
-66.681098018861562
42
0.41421356237309509
10
-133.37500000000006
20
-66.181098018861562
10
-146.37500000000006
20
-66.181098018861547
42
0.41421356237307427
10
-146.87500000000006
20
-66.681098018861562
10
-146.87500000000006
20
-79.681098018861562
42
0.41421356237305862
10
-146.37500000000006
20
-80.181098018861604
0
LWPOLYLINE
5
175
100
AcDbEntity
8
0
100
AcDbPolyline
90
8
70
1
43
0.0
10
-114.32500000000006
20
-80.181098018861547
42
0.41421356237308982
10
-113.82500000000007
20
-79.681098018861562
10
-113.82500000000006
20
-66.681098018861562
42
0.41421356237307427
10
-114.32500000000006
20
-66.181098018861562
10
-127.32500000000005
20
-66.181098018861547
42
0.41421356237309509
10
-127.82500000000006
20
-66.681098018861562
10
-127.82500000000006
20
-79.681098018861562
42
0.41421356237308982
10
-127.32500000000005
20
-80.181098018861604
0
LWPOLYLINE
5
176
100
AcDbEntity
8
0
100
AcDbPolyline
90
8
70
1
43
0.0
10
-37.019250000000056
20
-41.081098018861574
42
0.41421356237309759
10
-36.519250000000049
20
-40.581098018861574
10
-36.519250000000056
20
-27.581098018861567
42
0.41421356237308982
10
-37.019250000000042
20
-27.081098018861567
10
-42.769250000000056
20
-27.081098018861567
42
0.41421356237309759
10
-43.269250000000042
20
-27.581098018861567
10
-43.269250000000056
20
-40.581098018861574
42
0.41421356237311585
10
-42.769250000000042
20
-41.081098018861567
0
LWPOLYLINE
5
177
100
AcDbEntity
8
0
100
AcDbPolyline
90
8
70
1
43
0.0
10
-123.85000000000007
20
-99.231098018861573
42
0.4142135623730534
10
-123.35000000000007
20
-98.731098018861573
10
-123.35000000000007
20
-85.731098018861559
42
0.4142135623730534
10
-123.85000000000007
20
-85.231098018861573
10
-136.85000000000005
20
-85.231098018861573
42
0.41421356237309509
10
-137.35000000000002
20
-85.731098018861559
10
-137.35000000000005
20
-98.731098018861573
42
0.4142135623730534
10
-136.85000000000005
20
-99.231098018861573
0
LWPOLYLINE
5
178
100
AcDbEntity
8
0
100
AcDbPolyline
90
8
70
1
43
0.0
10
-52.412500000000051
20
-42.08109801886156
42
0.41421356237309509
10
-51.912500000000051
20
-41.58109801886156
10
-51.912500000000051
20
-28.581098018861574
42
0.4142135623731002
10
-52.412500000000065
20
-28.081098018861574
10
-65.412500000000065
20
-28.081098018861574
42
0.41421356237309509
10
-65.91250000000008
20
-28.581098018861574
10
-65.912500000000051
20
-41.58109801886156
42
0.41421356237308982
10
-65.412500000000065
20
-42.08109801886156
0
LWPOLYLINE
5
179
100
AcDbEntity
8
0
100
AcDbPolyline
90
8
70
1
43
0.0
10
-90.512500000000045
20
-42.08109801886156
42
0.4142135623731002
10
-90.01250000000006
20
-41.58109801886156
10
-90.01250000000006
20
-28.581098018861574
42
0.41421356237309759
10
-90.512500000000045
20
-28.081098018861574
10
-103.51250000000006
20
-28.081098018861574
42
0.4142135623731002
10
-104.01250000000006
20
-28.581098018861574
10
-104.01250000000006
20
-41.58109801886156
42
0.41421356237307427
10
-103.51250000000006
20
-42.081098018861567
0
LWPOLYLINE
5
180
100
AcDbEntity
8
0
100
AcDbPolyline
90
8
70
1
43
0.0
10
-152.42500000000007
20
-80.181098018861547
42
0.41421356237308465
10
-151.92500000000007
20
-79.681098018861562
10
-151.92500000000007
20
-66.681098018861562
42
0.41421356237309509
10
-152.42500000000007
20
-66.181098018861562
10
-165.42500000000007
20
-66.181098018861547
42
0.41421356237313145
10
-165.92500000000007
20
-66.681098018861562
10
-165.92500000000007
20
-79.681098018861562
42
0.41421356237311063
10
-165.42500000000007
20
-80.181098018861562
0
LWPOLYLINE
5
181
100
AcDbEntity
8
0
100
AcDbPolyline
90
8
70
1
43
0.0
10
-170.68750000000009
20
-60.631098018861564
42
0.41421356237313667
10
-170.18750000000009
20
-61.131098018861572
10
-157.18750000000006
20
-61.131098018861564
42
0.41421356237310542
10
-156.68750000000006
20
-60.631098018861564
10
-156.68750000000006
20
-47.631098018861557
42
0.41421356237307944
10
-157.18750000000006
20
-47.131098018861557
10
-170.18750000000009
20
-47.131098018861557
42
0.41421356237307427
10
-170.68750000000009
20
-47.631098018861557
0
LWPOLYLINE
5
182
100
AcDbEntity
8
0
100
AcDbPolyline
90
8
70
1
43
0.0
10
-176.23750000000007
20
-61.131098018861564
42
0.4142135623730222
10
-175.73750000000013
20
-60.631098018861564
10
-175.73750000000007
20
-47.631098018861557
42
0.41421356237312629
10
-176.23750000000007
20
-47.131098018861557
10
-189.2375000000001
20
-47.131098018861557
42
0.41421356237307427
10
-189.7375000000001
20
-47.631098018861557
10
-189.7375000000001
20
-60.631098018861564
42
0.41421356237313667
10
-189.2375000000001
20
-61.131098018861572
0
LWPOLYLINE
5
183
100
AcDbEntity
8
0
100
AcDbPolyline
90
8
70
1
43
0.0
10
-180.21250000000009
20
-41.58109801886156
42
0.41421356237313145
10
-179.71250000000009
20
-42.08109801886156
10
-166.71250000000009
20
-42.08109801886156
42
0.4142135623730222
10
-166.21250000000006
20
-41.58109801886156
10
-166.21250000000006
20
-28.581098018861574
42
0.4142135623731002
10
-166.71250000000009
20
-28.081098018861574
10
-179.71250000000009
20
-28.081098018861574
42
0.41421356237307683
10
-180.21250000000009
20
-28.581098018861574
0
LWPOLYLINE
5
184
100
AcDbEntity
8
0
100
AcDbPolyline
90
8
70
1
43
0.0
10
-42.887500000000045
20
-61.131098018861564
42
0.41421356237309509
10
-42.387500000000045
20
-60.631098018861564
10
-42.387500000000045
20
-47.631098018861557
42
0.4142135623731002
10
-42.88750000000006
20
-47.131098018861564
10
-55.887500000000053
20
-47.131098018861557
42
0.41421356237309509
10
-56.387500000000074
20
-47.631098018861557
10
-56.387500000000053
20
-60.631098018861564
42
0.41421356237308982
10
-55.88750000000006
20
-61.131098018861564
0
LWPOLYLINE
5
185
100
AcDbEntity
8
0
100
AcDbPolyline
90
8
70
1
43
0.0
10
-61.937500000000057
20
-61.131098018861564
42
0.41421356237309509
10
-61.437500000000057
20
-60.631098018861564
10
-61.437500000000057
20
-47.631098018861557
42
0.4142135623731002
10
-61.937500000000071
20
-47.131098018861564
10
-74.937500000000043
20
-47.131098018861557
42
0.41421356237309509
10
-75.437500000000043
20
-47.631098018861557
10
-75.437500000000043
20
-60.631098018861564
42
0.4142135623731002
10
-74.937500000000043
20
-61.131098018861564
0
LWPOLYLINE
5
186
100
AcDbEntity
8
0
100
AcDbPolyline
90
8
70
1
43
0.0
10
-233.38750000000007
20
-61.131098018861564
42
0.41421356237307427
10
-232.88750000000005
20
-60.631098018861564
10
-232.8875000000001
20
-47.631098018861557
42
0.41421356237312101
10
-233.38750000000007
20
-47.131098018861564
10
-246.3875000000001
20
-47.131098018861557
42
0.4142135623730222
10
-246.8875000000001
20
-47.631098018861557
10
-246.8875000000001
20
-60.631098018861564
42
0.41421356237312629
10
-246.3875000000001
20
-61.131098018861564
0
LWPOLYLINE
5
187
100
AcDbEntity
8
0
100
AcDbPolyline
90
8
70
1
43
0.0
10
-244.4562500000001
20
-42.08109801886156
42
0.41421356237307427
10
-243.95625000000007
20
-41.58109801886156
10
-243.9562500000001
20
-28.581098018861574
42
0.41421356237313145
10
-244.4562500000001
20
-28.081098018861574
10
-245.45625000000007
20
-28.081098018861574
42
0.41421356237304557
10
-245.9562500000001
20
-28.581098018861574
10
-245.9562500000001
20
-41.58109801886156
42
0.41421356237312101
10
-245.45625000000007
20
-42.08109801886156
0
LWPOLYLINE
5
188
100
AcDbEntity
8
0
100
AcDbPolyline
90
11
70
1
43
0.0
10
-284.9908122799776
20
-22.535668019989686
42
0.37225978083667238
10
-284.56322266366141
20
-23.030396972381546
10
-284.51396799980802
20
-23.030396972381549
42
0.013240962208357058
10
-284.48750000000007
20
-23.031098018861549
10
-271.48750000000007
20
-23.031098018861577
42
0.23889067683296197
10
-271.0843165000237
20
-22.826805755227877
42
0.15664386290056465
10
-270.99081227997766
20
-22.535668019989686
10
-270.99081227997766
20
-9.5356680199897088
42
0.41421356237309509
10
-271.49081227997766
20
-9.0356680199897017
10
-284.49081227997766
20
-9.0356680199897195
42
0.41421356237309509
10
-284.9908122799776
20
-9.5356680199897088
0
LWPOLYLINE
5
189
100
AcDbEntity
8
0
100
AcDbPolyline
90
11
70
1
43
0.0
10
-61.86840189629369
20
-23.030396972381496
10
-61.911032000190573
20
-23.030396972381496
42
-0.013240962208862063
10
-61.937500000000057
20
-23.031098018861577
10
-74.937500000000043
20
-23.031098018861577
42
-0.4142135623731002
10
-75.437500000000043
20
-22.531098018861577
10
-75.437500000000043
20
-9.5310980188615666
42
-0.1566438629123543
10
-75.343995779940599
20
-9.239960283604681
42
-0.23889067682062406
10
-74.940812279978104
20
-9.0356680199897603
10
-61.940812279978132
20
-9.0356680199897781
42
-0.41421356237309509
10
-61.440812279978161
20
-9.5356680199897497
10
-61.440812279978132
20
-22.535668019989714
42
-0.37225978083627087
0
LWPOLYLINE
5
190
100
AcDbEntity
8
0
100
AcDbPolyline
90
8
70
1
43
0.0
10
-203.04951605652798
20
-9.5219905708604333
42
0.40970303368512212
10
-203.54945657945137
20
-9.0297024797698278
10
-209.54951607945134
20
-9.0297024797698278
42
0.41421356237315743
10
-210.04951607945139
20
-9.5297024797698349
10
-210.04951605652806
20
-24.526364195136221
42
0.41421356237320173
10
-209.54951605652803
20
-25.026364195136228
10
-203.54951605652801
20
-25.026364195136228
42
0.41421356237308465
10
-203.04951605652803
20
-24.526364195136221
0
LWPOLYLINE
5
191
100
AcDbEntity
8
0
100
AcDbPolyline
90
11
70
1
43
0.0
10
-142.83090189629365
20
-23.030396972381514
10
-142.87353200019095
20
-23.030396972381514
42
-0.013240962208793885
10
-142.90000000000006
20
-23.031098018861577
10
-155.90000000000006
20
-23.031098018861581
42
-0.41421356237307161
10
-156.40000000000006
20
-22.531098018861577
10
-156.40000000000003
20
-9.5310980188615666
42
-0.15664386291627216
10
-156.30649577993591
20
-9.2399602835985597
42
-0.23889067681662565
10
-155.90331227997791
20
-9.0356680199897372
10
-142.90331227997794
20
-9.0356680199897195
42
-0.41421356237309509
10
-142.40331227997791
20
-9.5356680199897266
10
-142.40331227997791
20
-22.535668019989707
42
-0.37225978083636818
0
LWPOLYLINE
5
192
100
AcDbEntity
8
0
100
AcDbPolyline
90
11
70
1
43
0.0
10
-14.243401896293626
20
-23.030396972381478
10
-14.286032000190232
20
-23.030396972381478
42
-0.013240962209054056
10
-14.31250000000005
20
-23.031098018861577
10
-27.312500000000046
20
-23.031098018861577
42
-0.4142135623731002
10
-27.812500000000053
20
-22.531098018861577
10
-27.812500000000043
20
-9.5310980188615666
42
-0.15664386291693011
10
-27.718995779935387
20
-9.2399602835974157
42
-0.23889067681586129
10
-27.315812279978218
20
-9.0356680199897603
10
-14.315812279978246
20
-9.035668019989707
42
-0.41421356237309509
10
-13.815812279978203
20
-9.5356680199897497
10
-13.815812279978248
20
-22.535668019989721
42
-0.3722597808361674
0
LWPOLYLINE
5
193
100
AcDbEntity
8
0
100
AcDbPolyline
90
11
70
1
43
0.0
10
-237.36581227997775
20
-22.535668019989696
42
0.37225978083647115
10
-236.93822266366183
20
-23.030396972381538
10
-236.88896799980887
20
-23.030396972381538
42
0.013240962208601433
10
-236.86250000000007
20
-23.031098018861577
10
-223.86250000000007
20
-23.031098018861577
42
0.23889067682803447
10
-223.45931650002922
20
-22.826805755235412
42
0.15664386290531035
10
-223.3658122799778
20
-22.535668019989696
10
-223.36581227997777
20
-9.5356680199897266
42
0.41421356237309509
10
-223.86581227997777
20
-9.0356680199897195
10
-236.86581227997775
20
-9.0356680199897017
42
0.41421356237309509
10
-237.36581227997775
20
-9.5356680199897088
0
LWPOLYLINE
5
194
100
AcDbEntity
8
0
100
AcDbPolyline
90
10
70
1
43
0.0
10
-88.878312279978076
20
-23.548905168164964
10
-88.878312279978076
20
-24.505873552258638
42
-0.40807538428524809
10
-89.345847352530512
20
-25.02636419513621
10
-95.249516056528037
20
-25.026364195136228
42
-0.41421356237307427
10
-95.749516056528051
20
-24.526364195136257
10
-95.749516056528051
20
-10.5263641951362
42
-0.41421356237309509
10
-95.249516056528037
20
-10.026364195136193
10
-89.37826605652802
20
-10.026364195136235
42
-0.41023648157569853
10
-88.878312279978076
20
-10.519565569288737
10
-88.878312279978076
20
-23.505873552258638
42
-0.021525777498594585
0
ENDSEC
0
SECTION
2
OBJECTS
0
DICTIONARY
5
C
100
AcDbDictionary
3
ACAD_GROUP
350
D
3
ACAD_MLINESTYLE
350
17
0
DICTIONARY
5
D
100
AcDbDictionary
0
DICTIONARY
5
1A
330
C
100
AcDbDictionary
0
DICTIONARY
5
17
100
AcDbDictionary
0
ENDSEC
0
EOF
