0
SECTION
2
HEADER
9
$INSUNITS
70
4
9
$ACADVER
1
AC1014
9
$HANDSEED
5
FFFF
0
ENDSEC
0
SECTION
2
TABLES
0
TABLE
2
VPORT
5
8
100
AcDbSymbolTable
0
ENDTAB
0
TABLE
2
LTYPE
5
5
100
AcDbSymbolTable
0
LTYPE
5
14
100
AcDbSymbolTableRecord
100
AcDbLinetypeTableRecord
2
BYBLOCK
70
0
0
LTYPE
5
15
100
AcDbSymbolTableRecord
100
AcDbLinetypeTableRecord
2
BYLAYER
70
0
0
ENDTAB
0
TABLE
2
LAYER
5
2
100
AcDbSymbolTable
70
2
0
LAYER
5
50
100
AcDbSymbolTableRecord
100
AcDbLayerTableRecord
2
0
70
0
6
CONTINUOUS
0
ENDTAB
0
TABLE
2
STYLE
5
3
100
AcDbSymbolTable
70
1
0
STYLE
5
11
100
AcDbSymbolTableRecord
100
AcDbTextStyleTableRecord
2
STANDARD
70
0
0
ENDTAB
0
TABLE
2
VIEW
5
6
100
AcDbSymbolTable
70
0
0
ENDTAB
0
TABLE
2
UCS
5
7
100
AcDbSymbolTable
70
0
0
ENDTAB
0
TABLE
2
APPID
5
9
100
AcDbSymbolTable
70
2
0
APPID
5
12
100
AcDbSymbolTableRecord
100
AcDbRegAppTableRecord
2
ACAD
70
0
0
ENDTAB
0
TABLE
2
DIMSTYLE
5
A
100
AcDbSymbolTable
70
1
0
ENDTAB
0
TABLE
2
BLOCK_RECORD
5
1
100
AcDbSymbolTable
70
1
0
BLOCK_RECORD
5
1F
100
AcDbSymbolTableRecord
100
AcDbBlockTableRecord
2
*MODEL_SPACE
0
BLOCK_RECORD
5
1B
100
AcDbSymbolTableRecord
100
AcDbBlockTableRecord
2
*PAPER_SPACE
0
ENDTAB
0
ENDSEC
0
SECTION
2
BLOCKS
0
BLOCK
5
20
100
AcDbEntity
100
AcDbBlockBegin
2
*MODEL_SPACE
0
ENDBLK
5
21
100
AcDbEntity
100
AcDbBlockEnd
0
BLOCK
5
1C
100
AcDbEntity
100
AcDbBlockBegin
2
*PAPER_SPACE
0
ENDBLK
5
1D
100
AcDbEntity
100
AcDbBlockEnd
0
ENDSEC
0
SECTION
2
ENTITIES
0
LWPOLYLINE
5
100
100
AcDbEntity
8
0
100
AcDbPolyline
90
8
70
1
43
0.0
10
-93.987802021481883
20
-95.496397813844482
10
-93.987802021481883
20
-82.996397813844439
10
-92.987802021481912
20
-81.996397813844467
10
-80.487802021481912
20
-81.996397813844467
10
-79.487802021481883
20
-82.996397813844482
10
-79.487802021481883
20
-95.49639781384451
10
-80.487802021481912
20
-96.496397813844496
10
-92.987802021481869
20
-96.496397813844496
0
LWPOLYLINE
5
101
100
AcDbEntity
8
0
100
AcDbPolyline
90
8
70
1
43
0.0
10
-17.787802021481873
20
-95.496397813844482
10
-17.787802021481873
20
-82.996397813844439
10
-16.787802021481895
20
-81.996397813844467
10
-4.2878020214818946
20
-81.996397813844467
10
-3.2878020214818804
20
-82.996397813844482
10
-3.2878020214818804
20
-95.49639781384451
10
-4.2878020214818946
20
-96.496397813844496
10
-16.787802021481859
20
-96.496397813844496
0
LWPOLYLINE
5
102
100
AcDbEntity
8
0
100
AcDbPolyline
90
8
70
1
43
0.0
10
-203.30196920997437
20
-63.946190782071888
10
-203.30196920997437
20
-76.446190782071923
10
-204.3019692099744
20
-77.446190782071909
10
-216.8019692099744
20
-77.446190782071909
10
-217.8019692099744
20
-76.446190782071881
10
-217.8019692099744
20
-63.946190782071852
10
-216.8019692099744
20
-62.946190782071874
10
-204.3019692099744
20
-62.946190782071874
0
LWPOLYLINE
5
103
100
AcDbEntity
8
0
100
AcDbPolyline
90
8
70
1
43
0.0
10
-222.35196920997438
20
-63.946190782071888
10
-222.35196920997438
20
-76.446190782071923
10
-223.35196920997441
20
-77.446190782071909
10
-235.85196920997436
20
-77.446190782071909
10
-236.85196920997438
20
-76.446190782071881
10
-236.85196920997438
20
-63.946190782071852
10
-235.85196920997441
20
-62.946190782071874
10
-223.35196920997441
20
-62.946190782071874
0
LWPOLYLINE
5
104
100
AcDbEntity
8
0
100
AcDbPolyline
90
8
70
1
43
0.0
10
-189.01490698577007
20
-44.89619299475148
10
-189.01490698577007
20
-57.396192994751516
10
-190.0149069857701
20
-58.396192994751495
10
-202.51490698577004
20
-58.396192994751495
10
-203.51490698577007
20
-57.39619299475148
10
-203.51490698577007
20
-44.896192994751445
10
-202.5149069857701
20
-43.896192994751466
10
-190.0149069857701
20
-43.896192994751466
0
LWPOLYLINE
5
105
100
AcDbEntity
8
0
100
AcDbPolyline
90
8
70
1
43
0.0
10
-212.83780202148191
20
-82.996397813844453
10
-212.83780202148191
20
-95.496397813844496
10
-213.83780202148191
20
-96.496397813844482
10
-226.33780202148188
20
-96.496397813844482
10
-227.33780202148188
20
-95.496397813844453
10
-227.33780202148188
20
-82.996397813844425
10
-226.33780202148191
20
-81.996397813844453
10
-213.83780202148191
20
-81.996397813844453
0
LWPOLYLINE
5
106
100
AcDbEntity
8
0
100
AcDbPolyline
90
8
70
1
43
0.0
10
-231.88780202148192
20
-82.996397813844453
10
-231.88780202148192
20
-95.496397813844496
10
-232.88780202148192
20
-96.496397813844482
10
-245.38780202148189
20
-96.496397813844482
10
-246.38780202148189
20
-95.496397813844453
10
-246.38780202148189
20
-82.996397813844425
10
-245.38780202148192
20
-81.996397813844453
10
-232.88780202148192
20
-81.996397813844453
0
LWPOLYLINE
5
107
100
AcDbEntity
8
0
100
AcDbPolyline
90
8
70
1
43
0.0
10
-131.86490698577006
20
-44.896192994751488
10
-131.86490698577006
20
-57.396192994751523
10
-132.86490698577006
20
-58.396192994751502
10
-145.36490698577003
20
-58.396192994751502
10
-146.36490698577003
20
-57.396192994751488
10
-146.36490698577003
20
-44.896192994751452
10
-145.36490698577006
20
-43.896192994751473
10
-132.86490698577006
20
-43.896192994751473
0
LWPOLYLINE
5
108
100
AcDbEntity
8
0
100
AcDbPolyline
90
8
70
1
43
0.0
10
-208.06490698577005
20
-44.89619299475148
10
-208.06490698577005
20
-57.396192994751516
10
-209.06490698577005
20
-58.396192994751495
10
-221.56490698577002
20
-58.396192994751495
10
-222.56490698577005
20
-57.39619299475148
10
-222.56490698577005
20
-44.896192994751445
10
-221.56490698577005
20
-43.896192994751466
10
-209.06490698577005
20
-43.896192994751466
0
LWPOLYLINE
5
109
100
AcDbEntity
8
0
100
AcDbPolyline
90
8
70
1
43
0.0
10
-213.03978647550881
20
-19.296372945509248
10
-213.03978647550881
20
-6.7963729455092192
10
-212.03978647550883
20
-5.7963729455092405
10
-199.53978647550883
20
-5.7963729455092405
10
-198.53978647550883
20
-6.7963729455092547
10
-198.53978647550883
20
-19.296372945509273
10
-199.53978647550883
20
-20.296372945509251
10
-212.03978647550881
20
-20.296372945509251
0
LWPOLYLINE
5
110
100
AcDbEntity
8
0
100
AcDbPolyline
90
8
70
1
43
0.0
10
-236.85278647550882
20
-19.296372945509237
10
-236.85278647550882
20
-6.7963729455092192
10
-235.85278647550882
20
-5.7963729455092405
10
-223.35278647550882
20
-5.7963729455092405
10
-222.35278647550882
20
-6.7963729455092547
10
-222.35278647550882
20
-19.296372945509273
10
-223.35278647550882
20
-20.296372945509251
10
-235.85278647550879
20
-20.296372945509251
0
LWPOLYLINE
5
111
100
AcDbEntity
8
0
100
AcDbPolyline
90
8
70
1
43
0.0
10
-193.98880202168556
20
-38.341398872369595
10
-193.98880202168556
20
-25.841398872369574
10
-192.98880202168561
20
-24.841398872369595
10
-180.48880202168561
20
-24.841398872369595
10
-179.48880202168561
20
-25.841398872369609
10
-179.48880202168561
20
-38.341398872369638
10
-180.48880202168561
20
-39.341398872369609
10
-192.98880202168556
20
-39.341398872369609
0
LWPOLYLINE
5
112
100
AcDbEntity
8
0
100
AcDbPolyline
90
8
70
1
43
0.0
10
-198.53880202168557
20
-25.841398872369599
10
-198.53880202168557
20
-38.341398872369638
10
-199.5388020216856
20
-39.341398872369609
10
-212.03880202168557
20
-39.341398872369609
10
-213.03880202168557
20
-38.341398872369595
10
-213.03880202168557
20
-25.841398872369563
10
-212.0388020216856
20
-24.841398872369584
10
-199.5388020216856
20
-24.841398872369584
0
LWPOLYLINE
5
113
100
AcDbEntity
8
0
100
AcDbPolyline
90
8
70
1
43
0.0
10
-174.93880202168558
20
-38.341398872369595
10
-174.93880202168558
20
-25.841398872369574
10
-173.9388020216856
20
-24.841398872369595
10
-161.4388020216856
20
-24.841398872369595
10
-160.4388020216856
20
-25.841398872369609
10
-160.4388020216856
20
-38.341398872369638
10
-161.4388020216856
20
-39.341398872369609
10
-173.93880202168558
20
-39.341398872369609
0
LWPOLYLINE
5
114
100
AcDbEntity
8
0
100
AcDbPolyline
90
8
70
1
43
0.0
10
-279.71496920997436
20
-76.446190782071881
10
-279.71496920997436
20
-63.946190782071852
10
-278.71496920997441
20
-62.946190782071874
10
-266.21496920997441
20
-62.946190782071874
10
-265.21496920997441
20
-63.946190782071888
10
-265.21496920997441
20
-76.446190782071923
10
-266.21496920997441
20
-77.446190782071909
10
-278.71496920997436
20
-77.446190782071909
0
LWPOLYLINE
5
115
100
AcDbEntity
8
0
100
AcDbPolyline
90
8
70
1
43
0.0
10
-250.9378020214819
20
-82.996397813844453
10
-250.9378020214819
20
-95.496397813844496
10
-251.9378020214819
20
-96.496397813844482
10
-264.43780202148184
20
-96.496397813844482
10
-265.4378020214819
20
-95.496397813844453
10
-265.4378020214819
20
-82.996397813844425
10
-264.4378020214819
20
-81.996397813844453
10
-251.9378020214819
20
-81.996397813844453
0
LWPOLYLINE
5
116
100
AcDbEntity
8
0
100
AcDbPolyline
90
8
70
1
43
0.0
10
-241.4019692099744
20
-63.946190782071888
10
-241.4019692099744
20
-76.446190782071923
10
-242.40196920997442
20
-77.446190782071909
10
-254.90196920997437
20
-77.446190782071909
10
-255.9019692099744
20
-76.446190782071881
10
-255.9019692099744
20
-63.946190782071852
10
-254.90196920997442
20
-62.946190782071874
10
-242.40196920997442
20
-62.946190782071874
0
LWPOLYLINE
5
117
100
AcDbEntity
8
0
100
AcDbPolyline
90
8
70
1
43
0.0
10
-241.61490698577006
20
-57.39619299475148
10
-241.61490698577006
20
-44.896192994751445
10
-240.61490698577006
20
-43.896192994751466
10
-228.11490698577006
20
-43.896192994751466
10
-227.11490698577006
20
-44.89619299475148
10
-227.11490698577006
20
-57.396192994751516
10
-228.11490698577006
20
-58.396192994751495
10
-240.61490698577003
20
-58.396192994751495
0
LWPOLYLINE
5
118
100
AcDbEntity
8
0
100
AcDbPolyline
90
8
70
1
43
0.0
10
-258.2828020216856
20
-38.341398872369545
10
-258.2828020216856
20
-25.84139887236951
10
-257.2828020216856
20
-24.841398872369531
10
-244.78280202168563
20
-24.841398872369531
10
-243.7828020216856
20
-25.841398872369545
10
-243.7828020216856
20
-38.341398872369581
10
-244.78280202168563
20
-39.34139887236956
10
-257.2828020216856
20
-39.34139887236956
0
LWPOLYLINE
5
119
100
AcDbEntity
8
0
100
AcDbPolyline
90
8
70
1
43
0.0
10
-232.08880202168558
20
-38.341398872369595
10
-232.08880202168558
20
-25.841398872369563
10
-231.08880202168561
20
-24.841398872369584
10
-218.58880202168561
20
-24.841398872369584
10
-217.58880202168558
20
-25.841398872369599
10
-217.58880202168558
20
-38.341398872369638
10
-218.58880202168561
20
-39.341398872369609
10
-231.08880202168558
20
-39.341398872369609
0
LWPOLYLINE
5
120
100
AcDbEntity
8
0
100
AcDbPolyline
90
14
70
1
43
0.0
10
-284.48780202148191
20
-95.496397813844482
10
-284.48780202148191
20
-82.996397813844439
10
-283.48780202148185
20
-81.996397813844453
10
-270.98780202148191
20
-81.996397813844453
10
-270.48780208406282
20
-82.49639775126353
10
-270.48589871997069
20
-82.49639775126353
10
-270.48589871997069
20
-82.498301115355673
10
-269.98780202148191
20
-82.996397813844439
10
-269.98780202148191
20
-95.496397813844482
10
-270.48589871997069
20
-95.994494512333262
10
-270.48589870065769
20
-95.996397813844467
10
-270.48780195890095
20
-95.996397751263515
10
-270.98780202148191
20
-96.496397813844482
10
-283.48780202148185
20
-96.496397813844482
0
LWPOLYLINE
5
121
100
AcDbEntity
8
0
100
AcDbPolyline
90
8
70
1
43
0.0
10
-284.47680202168561
20
-38.341398872369439
10
-284.47680202168561
20
-25.841398872369457
10
-283.47680202168561
20
-24.841398872369478
10
-270.97680202168561
20
-24.841398872369478
10
-269.97680202168561
20
-25.841398872369492
10
-269.97680202168561
20
-38.341398872369524
10
-270.97680202168561
20
-39.34139887236951
10
-283.47680202168556
20
-39.34139887236951
0
CIRCLE
5
122
100
AcDbEntity
8
0
100
AcDbCircle
10
-283.46153531009469
20
-58.613135622777079
30
0
40
0.81150000000000944
210
0
220
0
230
1
0
LWPOLYLINE
5
123
100
AcDbEntity
8
0
100
AcDbPolyline
90
8
70
1
43
0.0
10
-208.28780202148187
20
-95.496397813844453
10
-208.28780202148187
20
-82.996397813844425
10
-207.28780202148189
20
-81.996397813844453
10
-194.78780202148189
20
-81.996397813844453
10
-193.78780202148189
20
-82.996397813844453
10
-193.78780202148189
20
-95.496397813844496
10
-194.78780202148189
20
-96.496397813844482
10
-207.28780202148187
20
-96.496397813844482
0
CIRCLE
5
124
100
AcDbEntity
8
0
100
AcDbCircle
10
-48.625089246107805
20
-13.019472083450118
30
0
40
0.81150000000000055
210
0
220
0
230
1
0
LWPOLYLINE
5
125
100
AcDbEntity
8
0
100
AcDbPolyline
90
4
70
1
43
0.0
10
-175.22508442457621
20
-19.916264764070412
10
-188.72508442457621
20
-19.916264764070412
10
-188.72508442457621
20
-6.1662647640704016
10
-175.22508442457621
20
-6.1662647640704016
0
CIRCLE
5
126
100
AcDbEntity
8
0
100
AcDbCircle
10
-20.061084424576521
20
-89.236264764070199
30
0
40
0.81150000000000055
210
0
220
0
230
1
0
CIRCLE
5
127
100
AcDbEntity
8
0
100
AcDbCircle
10
-224.83858442457642
20
-51.1412647640703
30
0
40
0.81150000000000944
210
0
220
0
230
1
0
CIRCLE
5
128
100
AcDbEntity
8
0
100
AcDbCircle
10
-101.01208442457649
20
-32.091264764070203
30
0
40
0.81149999999999167
210
0
220
0
230
1
0
LWPOLYLINE
5
129
100
AcDbEntity
8
0
100
AcDbPolyline
90
4
70
1
43
0.0
10
-93.47508442457621
20
-6.1662647640704193
10
-79.97508442457621
20
-6.1662647640704193
10
-79.97508442457621
20
-19.916264764070412
10
-93.47508442457621
20
-19.916264764070412
0
CIRCLE
5
130
100
AcDbEntity
8
0
100
AcDbCircle
10
-220.07608417518199
20
-13.045460837468255
30
0
40
0.81150000000000944
210
0
220
0
230
1
0
CIRCLE
5
131
100
AcDbEntity
8
0
100
AcDbCircle
10
-267.70008442457583
20
-32.091264764070353
30
0
40
0.81150000000000944
210
0
220
0
230
1
0
CIRCLE
5
132
100
AcDbEntity
8
0
100
AcDbCircle
10
-139.11208442457649
20
-32.091264764070203
30
0
40
0.81149999999999167
210
0
220
0
230
1
0
CIRCLE
5
133
100
AcDbEntity
8
0
100
AcDbCircle
10
-177.21208442457652
20
-32.091264764070203
30
0
40
0.81150000000000944
210
0
220
0
230
1
0
LWPOLYLINE
5
134
100
AcDbEntity
8
0
100
AcDbPolyline
90
8
70
1
43
0.0
10
-198.75196920997439
20
-76.446190782071881
10
-198.75196920997439
20
-63.946190782071852
10
-197.75196920997442
20
-62.946190782071874
10
-185.25196920997442
20
-62.946190782071874
10
-184.25196920997439
20
-63.946190782071888
10
-184.25196920997439
20
-76.446190782071923
10
-185.25196920997442
20
-77.446190782071909
10
-197.75196920997439
20
-77.446190782071909
0
CIRCLE
5
135
100
AcDbEntity
8
0
100
AcDbCircle
10
-267.71108442457654
20
-89.236264764070199
30
0
40
0.81150000000000944
210
0
220
0
230
1
0
LWPOLYLINE
5
136
100
AcDbEntity
8
0
100
AcDbPolyline
90
8
70
1
43
0.0
10
-36.614906985770048
20
-44.896192994751488
10
-36.614906985770048
20
-57.396192994751523
10
-37.614906985770062
20
-58.396192994751502
10
-50.114906985770027
20
-58.396192994751502
10
-51.114906985770041
20
-57.396192994751488
10
-51.114906985770041
20
-44.896192994751452
10
-50.114906985770062
20
-43.896192994751473
10
-37.614906985770062
20
-43.896192994751473
0
CIRCLE
5
137
100
AcDbEntity
8
0
100
AcDbCircle
10
-53.388584424576386
20
-51.1412647640703
30
0
40
0.81150000000000055
210
0
220
0
230
1
0
LWPOLYLINE
5
138
100
AcDbEntity
8
0
100
AcDbPolyline
90
8
70
1
43
0.0
10
-117.78880202168557
20
-38.341398872369595
10
-117.78880202168557
20
-25.841398872369581
10
-116.78880202168558
20
-24.841398872369602
10
-104.28880202168558
20
-24.841398872369602
10
-103.28880202168557
20
-25.841398872369616
10
-103.28880202168557
20
-38.341398872369638
10
-104.28880202168558
20
-39.341398872369609
10
-116.78880202168556
20
-39.341398872369609
0
CIRCLE
5
139
100
AcDbEntity
8
0
100
AcDbCircle
10
-191.51108442457652
20
-89.236264764070199
30
0
40
0.81150000000000944
210
0
220
0
230
1
0
LWPOLYLINE
5
140
100
AcDbEntity
8
0
100
AcDbPolyline
90
8
70
1
43
0.0
10
-132.08780202148188
20
-95.496397813844482
10
-132.08780202148188
20
-82.996397813844439
10
-131.08780202148191
20
-81.996397813844467
10
-118.58780202148191
20
-81.996397813844467
10
-117.58780202148189
20
-82.996397813844482
10
-117.58780202148189
20
-95.49639781384451
10
-118.58780202148191
20
-96.496397813844496
10
-131.08780202148188
20
-96.496397813844496
0
CIRCLE
5
141
100
AcDbEntity
8
0
100
AcDbCircle
10
-143.87508442457653
20
-70.196264764070207
30
0
40
0.81149999999999167
210
0
220
0
230
1
0
LWPOLYLINE
5
142
100
AcDbEntity
8
0
100
AcDbPolyline
90
8
70
1
43
0.0
10
-65.401969209974339
20
-76.446190782071895
10
-65.401969209974339
20
-63.946190782071859
10
-64.401969209974368
20
-62.946190782071881
10
-51.901969209974368
20
-62.946190782071881
10
-50.901969209974354
20
-63.946190782071895
10
-50.901969209974354
20
-76.446190782071938
10
-51.901969209974368
20
-77.446190782071909
10
-64.401969209974339
20
-77.446190782071909
0
CIRCLE
5
143
100
AcDbEntity
8
0
100
AcDbCircle
10
-96.261084424576524
20
-89.236264764070199
30
0
40
0.81149999999999167
210
0
220
0
230
1
0
LWPOLYLINE
5
144
100
AcDbEntity
8
0
100
AcDbPolyline
90
8
70
1
43
0.0
10
-93.76490698577004
20
-44.896192994751488
10
-93.76490698577004
20
-57.396192994751523
10
-94.764906985770068
20
-58.396192994751502
10
-107.26490698577003
20
-58.396192994751502
10
-108.26490698577004
20
-57.396192994751488
10
-108.26490698577004
20
-44.896192994751452
10
-107.26490698577007
20
-43.896192994751473
10
-94.764906985770068
20
-43.896192994751473
0
LWPOLYLINE
5
145
100
AcDbEntity
8
0
100
AcDbPolyline
90
8
70
1
43
0.0
10
-46.138802021685557
20
-25.841398872369616
10
-46.138802021685557
20
-38.341398872369638
10
-47.138802021685571
20
-39.341398872369609
10
-59.638802021685535
20
-39.341398872369609
10
-60.638802021685549
20
-38.341398872369595
10
-60.638802021685549
20
-25.841398872369581
10
-59.638802021685571
20
-24.841398872369602
10
-47.138802021685571
20
-24.841398872369602
0
LWPOLYLINE
5
146
100
AcDbEntity
8
0
100
AcDbPolyline
90
8
70
1
43
0.0
10
-127.31490698577005
20
-57.396192994751488
10
-127.31490698577005
20
-44.896192994751452
10
-126.31490698577008
20
-43.896192994751473
10
-113.81490698577008
20
-43.896192994751473
10
-112.81490698577005
20
-44.896192994751488
10
-112.81490698577005
20
-57.396192994751523
10
-113.81490698577008
20
-58.396192994751502
10
-126.31490698577004
20
-58.396192994751502
0
CIRCLE
5
147
100
AcDbEntity
8
0
100
AcDbCircle
10
-4.9615353101793147
20
-58.613352933489573
30
0
40
0.8115
210
0
220
0
230
1
0
LWPOLYLINE
5
148
100
AcDbEntity
8
0
100
AcDbPolyline
90
8
70
1
43
0.0
10
-169.96490698577006
20
-44.89619299475148
10
-169.96490698577006
20
-57.396192994751516
10
-170.96490698577009
20
-58.396192994751495
10
-183.46490698577003
20
-58.396192994751495
10
-184.46490698577006
20
-57.39619299475148
10
-184.46490698577006
20
-44.896192994751445
10
-183.46490698577009
20
-43.896192994751466
10
-170.96490698577009
20
-43.896192994751466
0
LWPOLYLINE
5
149
100
AcDbEntity
8
0
100
AcDbPolyline
90
8
70
1
43
0.0
10
-65.188802021685575
20
-25.841398872369616
10
-65.188802021685575
20
-38.341398872369638
10
-66.188802021685575
20
-39.341398872369609
10
-78.688802021685547
20
-39.341398872369609
10
-79.688802021685561
20
-38.341398872369595
10
-79.688802021685561
20
-25.841398872369581
10
-78.688802021685575
20
-24.841398872369602
10
-66.188802021685575
20
-24.841398872369602
0
LWPOLYLINE
5
150
100
AcDbEntity
8
0
100
AcDbPolyline
90
8
70
1
43
0.0
10
-113.03780202148189
20
-95.496397813844482
10
-113.03780202148189
20
-82.996397813844439
10
-112.03780202148192
20
-81.996397813844467
10
-99.537802021481923
20
-81.996397813844467
10
-98.537802021481895
20
-82.996397813844482
10
-98.537802021481895
20
-95.49639781384451
10
-99.537802021481923
20
-96.496397813844496
10
-112.03780202148188
20
-96.496397813844496
0
LWPOLYLINE
5
151
100
AcDbEntity
8
0
100
AcDbPolyline
90
8
70
1
43
0.0
10
-179.70196920997438
20
-76.446190782071895
10
-179.70196920997438
20
-63.946190782071859
10
-178.70196920997441
20
-62.946190782071881
10
-166.20196920997441
20
-62.946190782071881
10
-165.20196920997438
20
-63.946190782071895
10
-165.20196920997438
20
-76.446190782071938
10
-166.20196920997441
20
-77.446190782071909
10
-178.70196920997438
20
-77.446190782071909
0
LWPOLYLINE
5
152
100
AcDbEntity
8
0
100
AcDbPolyline
90
8
70
1
43
0.0
10
-136.63780202148189
20
-82.996397813844453
10
-136.63780202148189
20
-95.496397813844496
10
-137.63780202148189
20
-96.496397813844482
10
-150.13780202148186
20
-96.496397813844482
10
-151.13780202148189
20
-95.496397813844453
10
-151.13780202148189
20
-82.996397813844425
10
-150.13780202148189
20
-81.996397813844453
10
-137.63780202148189
20
-81.996397813844453
0
LWPOLYLINE
5
153
100
AcDbEntity
8
0
100
AcDbPolyline
90
8
70
1
43
0.0
10
-98.738802021685572
20
-38.341398872369595
10
-98.738802021685572
20
-25.841398872369581
10
-97.738802021685586
20
-24.841398872369602
10
-85.238802021685586
20
-24.841398872369602
10
-84.238802021685586
20
-25.841398872369616
10
-84.238802021685586
20
-38.341398872369638
10
-85.238802021685586
20
-39.341398872369609
10
-97.738802021685558
20
-39.341398872369609
0
LWPOLYLINE
5
154
100
AcDbEntity
8
0
100
AcDbPolyline
90
8
70
1
43
0.0
10
-60.437802021481879
20
-82.996397813844482
10
-60.437802021481879
20
-95.49639781384451
10
-61.437802021481893
20
-96.496397813844496
10
-73.937802021481858
20
-96.496397813844496
10
-74.937802021481872
20
-95.496397813844482
10
-74.937802021481872
20
-82.996397813844439
10
-73.9378020214819
20
-81.996397813844467
10
-61.437802021481893
20
-81.996397813844467
0
LWPOLYLINE
5
155
100
AcDbEntity
8
0
100
AcDbPolyline
90
8
70
1
43
0.0
10
-69.951969209974365
20
-63.946190782071895
10
-69.951969209974365
20
-76.446190782071938
10
-70.951969209974379
20
-77.446190782071909
10
-83.451969209974351
20
-77.446190782071909
10
-84.451969209974351
20
-76.446190782071895
10
-84.451969209974351
20
-63.946190782071859
10
-83.451969209974379
20
-62.946190782071881
10
-70.951969209974379
20
-62.946190782071881
0
LWPOLYLINE
5
156
100
AcDbEntity
8
0
100
AcDbPolyline
90
8
70
1
43
0.0
10
-70.164786475508805
20
-19.296372945509248
10
-70.164786475508805
20
-6.7963729455092192
10
-69.164786475508834
20
-5.7963729455092405
10
-56.664786475508826
20
-5.7963729455092405
10
-55.664786475508812
20
-6.7963729455092547
10
-55.664786475508812
20
-19.296372945509283
10
-56.664786475508826
20
-20.296372945509269
10
-69.164786475508791
20
-20.296372945509269
0
LWPOLYLINE
5
157
100
AcDbEntity
8
0
100
AcDbPolyline
90
8
70
1
43
0.0
10
-155.6878020214819
20
-82.996397813844453
10
-155.6878020214819
20
-95.496397813844496
10
-156.6878020214819
20
-96.496397813844482
10
-169.18780202148187
20
-96.496397813844482
10
-170.1878020214819
20
-95.496397813844453
10
-170.1878020214819
20
-82.996397813844425
10
-169.1878020214819
20
-81.996397813844453
10
-156.6878020214819
20
-81.996397813844453
0
LWPOLYLINE
5
158
100
AcDbEntity
8
0
100
AcDbPolyline
90
8
70
1
43
0.0
10
-22.538969209974375
20
-76.446190782071909
10
-22.538969209974375
20
-63.946190782071866
10
-21.538969209974397
20
-62.946190782071895
10
-9.0389692099743968
20
-62.946190782071895
10
-8.0389692099743826
20
-63.946190782071909
10
-8.0389692099743826
20
-76.446190782071938
10
-9.0389692099743968
20
-77.446190782071923
10
-21.538969209974361
20
-77.446190782071923
0
LWPOLYLINE
5
159
100
AcDbEntity
8
0
100
AcDbPolyline
90
8
70
1
43
0.0
10
-189.23780202148185
20
-95.496397813844453
10
-189.23780202148185
20
-82.996397813844425
10
-188.23780202148191
20
-81.996397813844453
10
-175.73780202148191
20
-81.996397813844453
10
-174.73780202148191
20
-82.996397813844453
10
-174.73780202148191
20
-95.496397813844496
10
-175.73780202148191
20
-96.496397813844482
10
-188.23780202148185
20
-96.496397813844482
0
LWPOLYLINE
5
160
100
AcDbEntity
8
0
100
AcDbPolyline
90
8
70
1
43
0.0
10
-24.920906985770053
20
-57.396192994751502
10
-24.920906985770053
20
-44.896192994751459
10
-23.920906985770074
20
-43.896192994751488
10
-11.420906985770074
20
-43.896192994751488
10
-10.42090698577006
20
-44.896192994751502
10
-10.42090698577006
20
-57.39619299475153
10
-11.420906985770074
20
-58.396192994751516
10
-23.920906985770038
20
-58.396192994751516
0
LWPOLYLINE
5
161
100
AcDbEntity
8
0
100
AcDbPolyline
90
8
70
1
43
0.0
10
-41.387802021481903
20
-82.996397813844482
10
-41.387802021481903
20
-95.49639781384451
10
-42.387802021481917
20
-96.496397813844496
10
-54.887802021481882
20
-96.496397813844496
10
-55.887802021481896
20
-95.496397813844482
10
-55.887802021481896
20
-82.996397813844439
10
-54.887802021481917
20
-81.996397813844467
10
-42.387802021481917
20
-81.996397813844467
0
LWPOLYLINE
5
162
100
AcDbEntity
8
0
100
AcDbPolyline
90
8
70
1
43
0.0
10
-122.55196920997437
20
-76.446190782071895
10
-122.55196920997437
20
-63.946190782071859
10
-121.5519692099744
20
-62.946190782071881
10
-109.0519692099744
20
-62.946190782071881
10
-108.05196920997439
20
-63.946190782071895
10
-108.05196920997439
20
-76.446190782071938
10
-109.0519692099744
20
-77.446190782071909
10
-121.55196920997437
20
-77.446190782071909
0
CIRCLE
5
163
100
AcDbEntity
8
0
100
AcDbCircle
10
-170.32608417518196
20
-13.045460837468255
30
0
40
0.81150000000000944
210
0
220
0
230
1
0
LWPOLYLINE
5
164
100
AcDbEntity
8
0
100
AcDbPolyline
90
8
70
1
43
0.0
10
-74.714906985770057
20
-44.896192994751488
10
-74.714906985770057
20
-57.396192994751523
10
-75.714906985770071
20
-58.396192994751502
10
-88.214906985770028
20
-58.396192994751502
10
-89.214906985770043
20
-57.396192994751488
10
-89.214906985770043
20
-44.896192994751452
10
-88.214906985770071
20
-43.896192994751473
10
-75.714906985770071
20
-43.896192994751473
0
LWPOLYLINE
5
165
100
AcDbEntity
8
0
100
AcDbPolyline
90
8
70
1
43
0.0
10
-31.85178647550881
20
-6.7963729455092547
10
-31.85178647550881
20
-19.29637294550929
10
-32.851786475508824
20
-20.296372945509269
10
-45.351786475508788
20
-20.296372945509269
10
-46.351786475508803
20
-19.296372945509255
10
-46.351786475508803
20
-6.7963729455092192
10
-45.351786475508824
20
-5.7963729455092405
10
-32.851786475508824
20
-5.7963729455092405
0
CIRCLE
5
166
100
AcDbEntity
8
0
100
AcDbCircle
10
-6.2378350819800144
20
-24.626758746087731
30
0
40
0.81150000000000055
210
0
220
0
230
1
0
CIRCLE
5
167
100
AcDbEntity
8
0
100
AcDbCircle
10
-98.375089246107805
20
-13.019472083450118
30
0
40
0.81149999999999167
210
0
220
0
230
1
0
LWPOLYLINE
5
168
100
AcDbEntity
8
0
100
AcDbPolyline
90
8
70
1
43
0.0
10
-146.15196920997437
20
-63.946190782071895
10
-146.15196920997437
20
-76.446190782071938
10
-147.1519692099744
20
-77.446190782071909
10
-159.65196920997437
20
-77.446190782071909
10
-160.65196920997437
20
-76.446190782071895
10
-160.65196920997437
20
-63.946190782071859
10
-159.6519692099744
20
-62.946190782071881
10
-147.1519692099744
20
-62.946190782071881
0
LWPOLYLINE
5
169
100
AcDbEntity
8
0
100
AcDbPolyline
90
8
70
1
43
0.0
10
-31.851969209974378
20
-63.946190782071895
10
-31.851969209974378
20
-76.446190782071938
10
-32.851969209974392
20
-77.446190782071909
10
-45.351969209974357
20
-77.446190782071909
10
-46.351969209974371
20
-76.446190782071895
10
-46.351969209974371
20
-63.946190782071859
10
-45.351969209974392
20
-62.946190782071881
10
-32.851969209974392
20
-62.946190782071881
0
LWPOLYLINE
5
170
100
AcDbEntity
8
0
100
AcDbPolyline
90
8
70
1
43
0.0
10
-36.837802021481885
20
-95.496397813844482
10
-36.837802021481885
20
-82.996397813844439
10
-35.837802021481906
20
-81.996397813844467
10
-23.337802021481906
20
-81.996397813844467
10
-22.337802021481892
20
-82.996397813844482
10
-22.337802021481892
20
-95.49639781384451
10
-23.337802021481906
20
-96.496397813844496
10
-35.83780202148187
20
-96.496397813844496
0
LWPOLYLINE
5
171
100
AcDbEntity
8
0
100
AcDbPolyline
90
8
70
1
43
0.0
10
-150.91490698577005
20
-44.896192994751488
10
-150.91490698577005
20
-57.396192994751523
10
-151.91490698577007
20
-58.396192994751502
10
-164.41490698577002
20
-58.396192994751502
10
-165.41490698577005
20
-57.396192994751488
10
-165.41490698577005
20
-44.896192994751452
10
-164.41490698577007
20
-43.896192994751473
10
-151.91490698577007
20
-43.896192994751473
0
LWPOLYLINE
5
172
100
AcDbEntity
8
0
100
AcDbPolyline
90
6
70
1
43
0.0
10
-8.9062664600221098
20
-24.84139887236962
10
-6.3081902486687902
20
-26.341398872369616
10
-6.3081902486687902
20
-39.341398872369609
10
-38.558190248668716
20
-39.341398872369609
10
-38.558190248668716
20
-26.341398872369616
10
-35.960114037315392
20
-24.84139887236962
0
LWPOLYLINE
5
173
100
AcDbEntity
8
0
100
AcDbPolyline
90
6
70
1
43
0.0
10
-251.78826646002207
20
-43.896192994751495
10
-249.19019024866878
20
-45.396192994751495
10
-249.19019024866878
20
-58.396192994751495
10
-281.44019024866873
20
-58.396192994751495
10
-281.44019024866873
20
-45.396192994751495
10
-278.84211403731547
20
-43.896192994751502
0
LWPOLYLINE
5
174
100
AcDbEntity
8
0
100
AcDbPolyline
90
8
70
1
43
0.0
10
-136.83880202168555
20
-38.341398872369595
10
-136.83880202168555
20
-25.841398872369574
10
-135.83880202168558
20
-24.841398872369595
10
-123.33880202168558
20
-24.841398872369595
10
-122.33880202168557
20
-25.841398872369609
10
-122.33880202168557
20
-38.341398872369638
10
-123.33880202168558
20
-39.341398872369609
10
-135.83880202168555
20
-39.341398872369609
0
LWPOLYLINE
5
175
100
AcDbEntity
8
0
100
AcDbPolyline
90
8
70
1
43
0.0
10
-155.88880202168556
20
-38.341398872369595
10
-155.88880202168556
20
-25.841398872369574
10
-154.88880202168559
20
-24.841398872369595
10
-142.38880202168559
20
-24.841398872369595
10
-141.38880202168559
20
-25.841398872369609
10
-141.38880202168559
20
-38.341398872369638
10
-142.38880202168559
20
-39.341398872369609
10
-154.88880202168556
20
-39.341398872369609
0
LWPOLYLINE
5
176
100
AcDbEntity
8
0
100
AcDbPolyline
90
8
70
1
43
0.0
10
-70.164906985770045
20
-57.396192994751488
10
-70.164906985770045
20
-44.896192994751452
10
-69.164906985770074
20
-43.896192994751473
10
-56.664906985770074
20
-43.896192994751473
10
-55.66490698577006
20
-44.896192994751488
10
-55.66490698577006
20
-57.396192994751523
10
-56.664906985770074
20
-58.396192994751502
10
-69.164906985770045
20
-58.396192994751502
0
LWPOLYLINE
5
177
100
AcDbEntity
8
0
100
AcDbPolyline
90
8
70
1
43
0.0
10
-141.60196920997438
20
-76.446190782071895
10
-141.60196920997438
20
-63.946190782071859
10
-140.60196920997438
20
-62.946190782071881
10
-128.10196920997438
20
-62.946190782071881
10
-127.10196920997438
20
-63.946190782071895
10
-127.10196920997438
20
-76.446190782071938
10
-128.10196920997438
20
-77.446190782071909
10
-140.60196920997436
20
-77.446190782071909
0
LWPOLYLINE
5
178
100
AcDbEntity
8
0
100
AcDbPolyline
90
8
70
1
43
0.0
10
-89.001969209974376
20
-63.946190782071895
10
-89.001969209974376
20
-76.446190782071938
10
-90.001969209974391
20
-77.446190782071909
10
-102.50196920997436
20
-77.446190782071909
10
-103.50196920997436
20
-76.446190782071895
10
-103.50196920997436
20
-63.946190782071859
10
-102.50196920997439
20
-62.946190782071881
10
-90.001969209974391
20
-62.946190782071881
0
LWPOLYLINE
5
179
100
AcDbEntity
8
0
100
AcDbPolyline
90
8
70
1
43
0.0
10
-141.60178647550882
20
-19.296372945509248
10
-141.60178647550882
20
-6.7963729455092192
10
-140.60178647550882
20
-5.7963729455092405
10
-128.10178647550882
20
-5.7963729455092405
10
-127.10178647550882
20
-6.7963729455092547
10
-127.10178647550882
20
-19.296372945509283
10
-128.10178647550882
20
-20.296372945509262
10
-140.60178647550879
20
-20.296372945509262
0
LWPOLYLINE
5
180
100
AcDbEntity
8
0
100
AcDbPolyline
90
56
70
1
43
0.0
10
-116.42042767547775
20
0.999984104678866
10
-116.42042767547775
20
1.9999841046792177
42
0.41421356237309404
10
-117.42042767547775
20
2.9999841046792284
10
-170.42042767547773
20
2.9999841046792142
42
0.41421356237307388
10
-171.42042767547775
20
1.9999841046792091
10
-171.42042767547775
20
0.9999841046789727
42
-0.41421356237307155
10
-172.42042767547775
20
-1.5895321018588593e-05
10
-219.26592767547774
20
-1.5895320936848423e-05
42
-0.41421356237309459
10
-220.26592767547777
20
0.99998410467907572
10
-220.26592767547777
20
1.9999841046792177
42
0.41421356237310275
10
-221.26592767547777
20
2.9999841046791875
10
-274.26592767547777
20
2.9999841046792142
42
0.4142135623731053
10
-275.26592767547777
20
1.9999841046792088
10
-275.26592767547771
20
0.99998410467918597
42
-0.41421356237310425
10
-276.26592767547777
20
-1.5895320810421776e-05
10
-286.84092767547776
20
-1.5895320792935763e-05
42
0.41421356237310536
10
-287.84092767547781
20
-1.0000158953207894
10
-287.84092767547781
20
-103.26626476407014
42
0.41421356237307422
10
-286.84092767547776
20
-104.26626476407016
10
-276.26600917885412
20
-104.2662647640701
42
-0.41421356237310025
10
-275.26600917885412
20
-105.26626476407014
10
-275.26600917885412
20
-106.26626476407017
42
0.41421356237307944
10
-274.26600917885412
20
-107.26626476407017
10
-221.26600917885412
20
-107.26626476407017
42
0.41421356237310542
10
-220.26600917885406
20
-106.26626476407014
10
-220.26600917885412
20
-105.26626476407014
42
-0.41421356237310542
10
-219.26600917885409
20
-104.26626476407014
10
-172.42050917885416
20
-104.2662647640701
42
-0.41421356237310025
10
-171.42050917885413
20
-105.26626476407014
10
-171.42050917885413
20
-106.26626476407017
42
0.41421356237307944
10
-170.42050917885416
20
-107.26626476407017
10
-117.4205091788541
20
-107.26626476407017
42
0.41421356237310542
10
-116.4205091788541
20
-106.26626476407014
10
-116.42050917885412
20
-105.26626476407014
42
-0.41421356237310542
10
-115.42050917885412
20
-104.26626476407014
10
-68.575009178854103
20
-104.26626476407016
42
-0.41421356237309764
10
-67.575009178854103
20
-105.26626476407014
10
-67.575009178854103
20
-106.26626476407017
42
0.41421356237309503
10
-66.575009178854117
20
-107.26626476407017
10
-13.575009178854103
20
-107.26626476407017
42
0.41421356237309631
10
-12.575009178854085
20
-106.26626476407014
10
-12.575009178854115
20
-105.26626476407014
42
-0.41421356237309764
10
-11.57500917885411
20
-104.26626476407014
10
-1.0000091788540999
20
-104.26626476407016
42
0.41421356237309681
10
-9.1788540798609652e-06
20
-103.26626476407014
10
-9.1788541034532045e-06
20
-1.0000158953213756
42
0.41421356237309725
10
-1.000009178854099
20
-1.5895321366782289e-05
10
-11.574927675477742
20
-1.5895321342218605e-05
42
-0.41421356237309265
10
-12.574927675477738
20
0.99998410467865928
10
-12.574927675477738
20
1.9999841046792177
42
0.41421356237309159
10
-13.574927675477737
20
2.9999841046792088
10
-66.574927675477738
20
2.9999841046792142
42
0.41421356237309553
10
-67.574927675477738
20
1.9999841046792088
10
-67.574927675477738
20
0.99998410467877719
42
-0.41421356237309653
10
-68.574927675477738
20
-1.5895321226894188e-05
10
-115.42042767547775
20
-1.5895321126280226e-05
42
-0.41421356237309387
0
ENDSEC
0
SECTION
2
OBJECTS
0
DICTIONARY
5
C
100
AcDbDictionary
3
ACAD_GROUP
350
D
3
ACAD_MLINESTYLE
350
17
0
DICTIONARY
5
D
100
AcDbDictionary
0
DICTIONARY
5
1A
330
C
100
AcDbDictionary
0
DICTIONARY
5
17
100
AcDbDictionary
0
ENDSEC
0
EOF
