0
SECTION
2
HEADER
9
$INSUNITS
70
4
9
$ACADVER
1
AC1014
9
$HANDSEED
5
FFFF
0
ENDSEC
0
SECTION
2
TABLES
0
TABLE
2
VPORT
5
8
100
AcDbSymbolTable
0
ENDTAB
0
TABLE
2
LTYPE
5
5
100
AcDbSymbolTable
0
LTYPE
5
14
100
AcDbSymbolTableRecord
100
AcDbLinetypeTableRecord
2
BYBLOCK
70
0
0
LTYPE
5
15
100
AcDbSymbolTableRecord
100
AcDbLinetypeTableRecord
2
BYLAYER
70
0
0
ENDTAB
0
TABLE
2
LAYER
5
2
100
AcDbSymbolTable
70
2
0
LAYER
5
50
100
AcDbSymbolTableRecord
100
AcDbLayerTableRecord
2
0
70
0
6
CONTINUOUS
0
ENDTAB
0
TABLE
2
STYLE
5
3
100
AcDbSymbolTable
70
1
0
STYLE
5
11
100
AcDbSymbolTableRecord
100
AcDbTextStyleTableRecord
2
STANDARD
70
0
0
ENDTAB
0
TABLE
2
VIEW
5
6
100
AcDbSymbolTable
70
0
0
ENDTAB
0
TABLE
2
UCS
5
7
100
AcDbSymbolTable
70
0
0
ENDTAB
0
TABLE
2
APPID
5
9
100
AcDbSymbolTable
70
2
0
APPID
5
12
100
AcDbSymbolTableRecord
100
AcDbRegAppTableRecord
2
ACAD
70
0
0
ENDTAB
0
TABLE
2
DIMSTYLE
5
A
100
AcDbSymbolTable
70
1
0
ENDTAB
0
TABLE
2
BLOCK_RECORD
5
1
100
AcDbSymbolTable
70
1
0
BLOCK_RECORD
5
1F
100
AcDbSymbolTableRecord
100
AcDbBlockTableRecord
2
*MODEL_SPACE
0
BLOCK_RECORD
5
1B
100
AcDbSymbolTableRecord
100
AcDbBlockTableRecord
2
*PAPER_SPACE
0
ENDTAB
0
ENDSEC
0
SECTION
2
BLOCKS
0
BLOCK
5
20
100
AcDbEntity
100
AcDbBlockBegin
2
*MODEL_SPACE
0
ENDBLK
5
21
100
AcDbEntity
100
AcDbBlockEnd
0
BLOCK
5
1C
100
AcDbEntity
100
AcDbBlockBegin
2
*PAPER_SPACE
0
ENDBLK
5
1D
100
AcDbEntity
100
AcDbBlockEnd
0
ENDSEC
0
SECTION
2
ENTITIES
0
LWPOLYLINE
5
100
100
AcDbEntity
8
0
100
AcDbPolyline
90
4
70
1
43
0.0
10
-161.87204972415395
20
-24.030747495621565
10
-169.87204972415401
20
-24.030747495621569
42
-0.99999999999999989
10
-169.87204972415395
20
-8.0307474956215543
10
-161.87204972415395
20
-8.0307474956215614
0
LWPOLYLINE
5
101
100
AcDbEntity
8
0
100
AcDbPolyline
90
4
70
1
43
0.0
10
-109.87204972604736
20
-24.030747495621601
10
-117.87204972604738
20
-24.030747495621601
10
-117.87204972604738
20
-8.0307474956216023
10
-109.87204972604736
20
-8.0307474956216041
42
-0.99999999999999989
0
LWPOLYLINE
5
102
100
AcDbEntity
8
0
100
AcDbPolyline
90
8
70
1
43
0.0
10
-29.693750000000048
20
-47.131098018861564
10
-11.931250000000039
20
-47.131098018861557
42
-0.41421356237309109
10
-11.431250000000048
20
-47.631098018861557
10
-11.431250000000047
20
-60.631098018861564
42
-0.41421356237309759
10
-11.931250000000048
20
-61.131098018861564
10
-29.693750000000048
20
-61.13109801886155
42
-0.41421356237309759
10
-30.193750000000044
20
-60.631098018861564
10
-30.193750000000041
20
-47.631098018861557
42
-0.41421356237309759
0
LWPOLYLINE
5
103
100
AcDbEntity
8
0
100
AcDbPolyline
90
8
70
1
43
0.0
10
-10.213750000000051
20
-60.631098018861564
10
-10.213750000000053
20
-47.631098018861557
42
-0.41421356237309759
10
-9.7137500000000507
20
-47.131098018861557
10
-8.7137500000000543
20
-47.131098018861557
42
-0.41421356237309759
10
-8.2137500000000507
20
-47.631098018861557
10
-8.213750000000049
20
-60.631098018861564
42
-0.41421356237309759
10
-8.7137500000000507
20
-61.131098018861564
10
-9.7137500000000685
20
-61.131098018861564
42
-0.41421356237307616
0
LWPOLYLINE
5
104
100
AcDbEntity
8
0
100
AcDbPolyline
90
8
70
1
43
0.0
10
-8.4749999999966885
20
-101.73109801886328
42
0.41421356237260415
10
-6.4749999999966903
20
-99.731098018866646
10
-6.4749999998433374
20
-8.4811617766865588
42
0.41421356237358703
10
-8.4749999998433267
20
-6.4811617766831926
10
-290.2250000005248
20
-6.4811617766831908
42
0.41421356237474516
10
-292.2250000005248
20
-8.4811617766944458
10
-292.22500000001139
20
-99.731098018874548
42
0.41421356237144574
10
-290.22500000001133
20
-101.73109801886328
0
LWPOLYLINE
5
105
100
AcDbEntity
8
0
100
AcDbPolyline
90
8
70
1
43
0.0
10
-183.99392472510067
20
-10.516938800637201
42
0.41421356237309637
10
-184.49392472510067
20
-10.016938800637192
10
-190.49392472510067
20
-10.01693880063721
42
0.41421356237309509
10
-190.99392472510064
20
-10.516938800637199
10
-190.99392472510067
20
-24.516938800637202
42
0.41421356237313145
10
-190.49392472510067
20
-25.01693880063721
10
-184.49392472510067
20
-25.01693880063721
42
0.41421356237313145
10
-183.99392472510067
20
-24.516938800637202
0
LWPOLYLINE
5
106
100
AcDbEntity
8
0
100
AcDbPolyline
90
8
70
1
43
0.0
10
-83.993924725100655
20
-10.51693880063721
42
0.41421356237310153
10
-84.493924725100669
20
-10.016938800637192
10
-95.250174725100663
20
-10.016938800637192
42
0.41421356237309509
10
-95.750174725100663
20
-10.516938800637199
10
-95.750174725100678
20
-24.516938800637202
42
0.41421356237307161
10
-95.250174725100663
20
-25.01693880063721
10
-84.493924725100669
20
-25.01693880063721
42
0.41421356237309243
10
-83.993924725100669
20
-24.516938800637202
0
LWPOLYLINE
5
107
100
AcDbEntity
8
0
100
AcDbPolyline
90
12
70
1
43
0.0
10
-226.21573597358929
20
-9.0310980188615773
42
0.01324096220891346
10
-226.2422039733984
20
-9.0303969723815136
10
-239.2422039733984
20
-9.0303969723815314
42
0.41421356237313273
10
-239.74220397339843
20
-9.5303969723815385
10
-239.74220397339843
20
-22.530396972381538
42
0.41421356237313145
10
-239.2422039733984
20
-23.030396972381546
10
-236.88896799980887
20
-23.030396972381538
42
0.013240962208601433
10
-236.86250000000007
20
-23.031098018861577
10
-223.86250000000007
20
-23.031098018861577
42
0.41421356237307683
10
-223.3625000000001
20
-22.531098018861577
10
-223.3625000000001
20
-9.5310980188615666
42
0.41421356237311718
10
-223.86250000000007
20
-9.0310980188615773
0
LWPOLYLINE
5
108
100
AcDbEntity
8
0
100
AcDbPolyline
90
12
70
1
43
0.0
10
-11.929703973398386
20
-23.030396972381475
10
-14.286032000190232
20
-23.030396972381478
42
-0.013240962209054056
10
-14.31250000000005
20
-23.031098018861577
10
-27.312500000000046
20
-23.031098018861577
42
-0.4142135623731002
10
-27.812500000000053
20
-22.531098018861577
10
-27.812500000000043
20
-9.5310980188615666
42
-0.41421356237309048
10
-27.312500000000057
20
-9.0310980188615773
10
-24.956171973208512
20
-9.0310980188615773
42
-0.013240962209372856
10
-24.929703973398389
20
-9.0303969723814603
10
-11.929703973398389
20
-9.0303969723814674
42
-0.41421356237308982
10
-11.429703973398389
20
-9.5303969723814674
10
-11.429703973398386
20
-22.530396972381475
42
-0.41421356237309637
0
LWPOLYLINE
5
109
100
AcDbEntity
8
0
100
AcDbPolyline
90
12
70
1
43
0.0
10
-130.99220397339838
20
-23.03039697238151
10
-142.87353200019095
20
-23.030396972381514
42
-0.013240962208793885
10
-142.90000000000006
20
-23.031098018861577
10
-155.90000000000006
20
-23.031098018861581
42
-0.41421356237307161
10
-156.40000000000006
20
-22.531098018861577
10
-156.40000000000003
20
-9.5310980188615666
42
-0.41421356237309959
10
-155.90000000000006
20
-9.0310980188615773
10
-144.01867197320786
20
-9.0310980188615773
42
-0.013240962209017298
10
-143.99220397339838
20
-9.0303969723814959
10
-130.99220397339838
20
-9.0303969723814976
42
-0.4142135623730937
10
-130.49220397339838
20
-9.530396972381503
10
-130.49220397339838
20
-22.53039697238151
42
-0.41421356237310542
0
LWPOLYLINE
5
110
100
AcDbEntity
8
0
100
AcDbPolyline
90
14
70
1
43
0.0
10
-203.0501747251007
20
-23.030396972381521
10
-203.05017472510065
20
-24.516938800637202
42
-0.41421356237313145
10
-203.55017472510067
20
-25.01693880063721
10
-209.55017472510067
20
-25.016938800637199
42
-0.41421356237313145
10
-210.0501747251007
20
-24.516938800637202
10
-210.0501747251007
20
-23.030396972381524
10
-215.4297039733984
20
-23.030396972381535
42
-0.41421356237313145
10
-215.9297039733984
20
-22.530396972381538
10
-215.9297039733984
20
-9.5303969723815207
42
-0.41421356237313273
10
-215.4297039733984
20
-9.0303969723815136
10
-202.42970397339843
20
-9.0303969723815207
42
-0.41421356237313273
10
-201.92970397339843
20
-9.5303969723815207
10
-201.92970397339838
20
-22.530396972381528
42
-0.41421356237307683
10
-202.42970397339843
20
-23.030396972381524
0
LWPOLYLINE
5
111
100
AcDbEntity
8
0
100
AcDbPolyline
90
12
70
1
43
0.0
10
-59.554703973398382
20
-23.030396972381489
10
-61.911032000190573
20
-23.030396972381496
42
-0.013240962208862063
10
-61.937500000000057
20
-23.031098018861577
10
-74.937500000000043
20
-23.031098018861577
42
-0.4142135623731002
10
-75.437500000000043
20
-22.531098018861577
10
-75.437500000000043
20
-9.5310980188615666
42
-0.4142135623730957
10
-74.937500000000043
20
-9.0310980188615773
10
-72.581171973208171
20
-9.0310980188615773
42
-0.01324096220921029
10
-72.554703973398389
20
-9.0303969723814781
10
-59.554703973398389
20
-9.0303969723814816
42
-0.41421356237309759
10
-59.054703973398396
20
-9.5303969723814852
10
-59.054703973398389
20
-22.530396972381492
42
-0.41421356237309509
0
LWPOLYLINE
5
112
100
AcDbEntity
8
0
100
AcDbPolyline
90
12
70
1
43
0.0
10
-273.84073597358957
20
-9.0310980188615773
42
0.013240962208727294
10
-273.86720397339838
20
-9.0303969723815314
10
-286.86720397339843
20
-9.0303969723815314
42
0.41421356237310153
10
-287.36720397339843
20
-9.5303969723815385
10
-287.36720397339843
20
-22.530396972381553
42
0.4142135623731002
10
-286.86720397339843
20
-23.03039697238156
10
-284.51396799980802
20
-23.030396972381549
42
0.013240962208357058
10
-284.48750000000007
20
-23.031098018861549
10
-271.48750000000007
20
-23.031098018861577
42
0.41421356237304557
10
-270.98750000000007
20
-22.531098018861577
10
-270.98750000000007
20
-9.5310980188615666
42
0.41421356237310153
10
-271.48750000000007
20
-9.0310980188615773
0
LWPOLYLINE
5
113
100
AcDbEntity
8
0
100
AcDbPolyline
90
12
70
1
43
0.0
10
-249.99455665399847
20
-9.0340278557263947
10
-247.66143873998547
20
-9.0340278557263964
42
-0.41421356237313273
10
-247.16143873998547
20
-9.5340278557263964
10
-247.16143873998544
20
-22.5340278557264
42
-0.41421356237307683
10
-247.66143873998547
20
-23.0340278557264
10
-260.6614387399855
20
-23.034027855726407
42
-0.030155803746479415
10
-260.72158605938546
20
-23.030396972381546
10
-263.05470397339843
20
-23.030396972381546
42
-0.41421356237313145
10
-263.55470397339843
20
-22.530396972381546
10
-263.55470397339843
20
-9.5303969723815385
42
-0.41421356237313273
10
-263.05470397339843
20
-9.0303969723815314
10
-250.05470397339843
20
-9.0303969723815296
42
-0.030155803746460742
0
LWPOLYLINE
5
114
100
AcDbEntity
8
0
100
AcDbPolyline
90
12
70
1
43
0.0
10
-38.111438739985452
20
-23.034027855726407
42
0.030155803746666276
10
-38.051291420584981
20
-23.030396972381485
10
-35.742203973398389
20
-23.030396972381482
42
0.41421356237309509
10
-35.242203973398389
20
-22.530396972381482
10
-35.242203973398389
20
-9.5303969723814674
42
0.41421356237309637
10
-35.742203973398389
20
-9.0303969723814603
10
-48.742203973398389
20
-9.0303969723814781
42
0.030155803746678981
10
-48.802351292798782
20
-9.0340278557263947
10
-51.111438739985445
20
-9.0340278557263947
42
0.41421356237310414
10
-51.611438739985459
20
-9.5340278557264035
10
-51.611438739985445
20
-22.534027855726411
42
0.41421356237309759
10
-51.111438739985445
20
-23.034027855726407
0
LWPOLYLINE
5
115
100
AcDbEntity
8
0
100
AcDbPolyline
90
8
70
1
43
0.0
10
-244.4562500000001
20
-42.08109801886156
42
0.41421356237307427
10
-243.95625000000007
20
-41.58109801886156
10
-243.9562500000001
20
-28.581098018861574
42
0.41421356237313145
10
-244.4562500000001
20
-28.081098018861574
10
-245.45625000000007
20
-28.081098018861574
42
0.41421356237304557
10
-245.9562500000001
20
-28.581098018861574
10
-245.9562500000001
20
-41.58109801886156
42
0.41421356237312101
10
-245.45625000000007
20
-42.08109801886156
0
LWPOLYLINE
5
116
100
AcDbEntity
8
0
100
AcDbPolyline
90
8
70
1
43
0.0
10
-233.38750000000007
20
-61.131098018861564
42
0.41421356237307427
10
-232.88750000000005
20
-60.631098018861564
10
-232.8875000000001
20
-47.631098018861557
42
0.41421356237312101
10
-233.38750000000007
20
-47.131098018861564
10
-246.3875000000001
20
-47.131098018861557
42
0.4142135623730222
10
-246.8875000000001
20
-47.631098018861557
10
-246.8875000000001
20
-60.631098018861564
42
0.41421356237312629
10
-246.3875000000001
20
-61.131098018861564
0
LWPOLYLINE
5
117
100
AcDbEntity
8
0
100
AcDbPolyline
90
8
70
1
43
0.0
10
-61.937500000000057
20
-61.131098018861564
42
0.41421356237309509
10
-61.437500000000057
20
-60.631098018861564
10
-61.437500000000057
20
-47.631098018861557
42
0.4142135623731002
10
-61.937500000000071
20
-47.131098018861564
10
-74.937500000000043
20
-47.131098018861557
42
0.41421356237309509
10
-75.437500000000043
20
-47.631098018861557
10
-75.437500000000043
20
-60.631098018861564
42
0.4142135623731002
10
-74.937500000000043
20
-61.131098018861564
0
LWPOLYLINE
5
118
100
AcDbEntity
8
0
100
AcDbPolyline
90
8
70
1
43
0.0
10
-42.887500000000045
20
-61.131098018861564
42
0.41421356237309509
10
-42.387500000000045
20
-60.631098018861564
10
-42.387500000000045
20
-47.631098018861557
42
0.4142135623731002
10
-42.88750000000006
20
-47.131098018861564
10
-55.887500000000053
20
-47.131098018861557
42
0.41421356237309509
10
-56.387500000000074
20
-47.631098018861557
10
-56.387500000000053
20
-60.631098018861564
42
0.41421356237308982
10
-55.88750000000006
20
-61.131098018861564
0
LWPOLYLINE
5
119
100
AcDbEntity
8
0
100
AcDbPolyline
90
8
70
1
43
0.0
10
-180.21250000000009
20
-41.58109801886156
42
0.41421356237313145
10
-179.71250000000009
20
-42.08109801886156
10
-166.71250000000009
20
-42.08109801886156
42
0.4142135623730222
10
-166.21250000000006
20
-41.58109801886156
10
-166.21250000000006
20
-28.581098018861574
42
0.4142135623731002
10
-166.71250000000009
20
-28.081098018861574
10
-179.71250000000009
20
-28.081098018861574
42
0.41421356237307683
10
-180.21250000000009
20
-28.581098018861574
0
LWPOLYLINE
5
120
100
AcDbEntity
8
0
100
AcDbPolyline
90
8
70
1
43
0.0
10
-176.23750000000007
20
-61.131098018861564
42
0.4142135623730222
10
-175.73750000000013
20
-60.631098018861564
10
-175.73750000000007
20
-47.631098018861557
42
0.41421356237312629
10
-176.23750000000007
20
-47.131098018861557
10
-189.2375000000001
20
-47.131098018861557
42
0.41421356237307427
10
-189.7375000000001
20
-47.631098018861557
10
-189.7375000000001
20
-60.631098018861564
42
0.41421356237313667
10
-189.2375000000001
20
-61.131098018861572
0
LWPOLYLINE
5
121
100
AcDbEntity
8
0
100
AcDbPolyline
90
8
70
1
43
0.0
10
-170.68750000000009
20
-60.631098018861564
42
0.41421356237313667
10
-170.18750000000009
20
-61.131098018861572
10
-157.18750000000006
20
-61.131098018861564
42
0.41421356237310542
10
-156.68750000000006
20
-60.631098018861564
10
-156.68750000000006
20
-47.631098018861557
42
0.41421356237307944
10
-157.18750000000006
20
-47.131098018861557
10
-170.18750000000009
20
-47.131098018861557
42
0.41421356237307427
10
-170.68750000000009
20
-47.631098018861557
0
LWPOLYLINE
5
122
100
AcDbEntity
8
0
100
AcDbPolyline
90
8
70
1
43
0.0
10
-152.42500000000007
20
-80.181098018861547
42
0.41421356237308465
10
-151.92500000000007
20
-79.681098018861562
10
-151.92500000000007
20
-66.681098018861562
42
0.41421356237309509
10
-152.42500000000007
20
-66.181098018861562
10
-165.42500000000007
20
-66.181098018861547
42
0.41421356237313145
10
-165.92500000000007
20
-66.681098018861562
10
-165.92500000000007
20
-79.681098018861562
42
0.41421356237311063
10
-165.42500000000007
20
-80.181098018861562
0
LWPOLYLINE
5
123
100
AcDbEntity
8
0
100
AcDbPolyline
90
8
70
1
43
0.0
10
-90.512500000000045
20
-42.08109801886156
42
0.4142135623731002
10
-90.01250000000006
20
-41.58109801886156
10
-90.01250000000006
20
-28.581098018861574
42
0.41421356237309759
10
-90.512500000000045
20
-28.081098018861574
10
-103.51250000000006
20
-28.081098018861574
42
0.4142135623731002
10
-104.01250000000006
20
-28.581098018861574
10
-104.01250000000006
20
-41.58109801886156
42
0.41421356237307427
10
-103.51250000000006
20
-42.081098018861567
0
LWPOLYLINE
5
124
100
AcDbEntity
8
0
100
AcDbPolyline
90
8
70
1
43
0.0
10
-52.412500000000051
20
-42.08109801886156
42
0.41421356237309509
10
-51.912500000000051
20
-41.58109801886156
10
-51.912500000000051
20
-28.581098018861574
42
0.4142135623731002
10
-52.412500000000065
20
-28.081098018861574
10
-65.412500000000065
20
-28.081098018861574
42
0.41421356237309509
10
-65.91250000000008
20
-28.581098018861574
10
-65.912500000000051
20
-41.58109801886156
42
0.41421356237308982
10
-65.412500000000065
20
-42.08109801886156
0
LWPOLYLINE
5
125
100
AcDbEntity
8
0
100
AcDbPolyline
90
8
70
1
43
0.0
10
-123.85000000000007
20
-99.231098018861573
42
0.4142135623730534
10
-123.35000000000007
20
-98.731098018861573
10
-123.35000000000007
20
-85.731098018861559
42
0.4142135623730534
10
-123.85000000000007
20
-85.231098018861573
10
-136.85000000000005
20
-85.231098018861573
42
0.41421356237309509
10
-137.35000000000002
20
-85.731098018861559
10
-137.35000000000005
20
-98.731098018861573
42
0.4142135623730534
10
-136.85000000000005
20
-99.231098018861573
0
LWPOLYLINE
5
126
100
AcDbEntity
8
0
100
AcDbPolyline
90
12
70
1
43
0.0
10
-42.887397089526814
20
-41.066938800637203
10
-42.89442472510067
20
-41.066938800637203
42
-0.41421356237309509
10
-43.394424725100663
20
-40.566938800637203
10
-43.394424725100663
20
-26.566938800637203
42
-0.41421356237309509
10
-42.89442472510067
20
-26.066938800637203
10
-36.89442472510067
20
-26.066938800637203
42
-0.41421356237309509
10
-36.394424725100677
20
-26.566938800637203
10
-36.39442472510067
20
-40.566938800637203
42
-0.41421356237309759
10
-36.89442472510067
20
-41.066938800637203
10
-36.901102910473305
20
-41.066938800637217
42
-0.059708366105241648
10
-37.019250000000056
20
-41.081098018861574
10
-42.769250000000042
20
-41.081098018861574
42
-0.059708366105246213
0
LWPOLYLINE
5
127
100
AcDbEntity
8
0
100
AcDbPolyline
90
8
70
1
43
0.0
10
-114.32500000000006
20
-80.181098018861547
42
0.41421356237308982
10
-113.82500000000007
20
-79.681098018861562
10
-113.82500000000006
20
-66.681098018861562
42
0.41421356237307427
10
-114.32500000000006
20
-66.181098018861562
10
-127.32500000000005
20
-66.181098018861547
42
0.41421356237309509
10
-127.82500000000006
20
-66.681098018861562
10
-127.82500000000006
20
-79.681098018861562
42
0.41421356237308982
10
-127.32500000000005
20
-80.181098018861604
0
LWPOLYLINE
5
128
100
AcDbEntity
8
0
100
AcDbPolyline
90
8
70
1
43
0.0
10
-133.37500000000006
20
-80.181098018861547
42
0.41421356237308465
10
-132.87500000000006
20
-79.681098018861562
10
-132.87500000000006
20
-66.681098018861562
42
0.41421356237309509
10
-133.37500000000006
20
-66.181098018861562
10
-146.37500000000006
20
-66.181098018861547
42
0.41421356237307427
10
-146.87500000000006
20
-66.681098018861562
10
-146.87500000000006
20
-79.681098018861562
42
0.41421356237305862
10
-146.37500000000006
20
-80.181098018861604
0
LWPOLYLINE
5
129
100
AcDbEntity
8
0
100
AcDbPolyline
90
8
70
1
43
0.0
10
-79.537500000000051
20
-23.031098018861577
42
0.41421356237309759
10
-79.037500000000051
20
-22.531098018861577
10
-79.037500000000051
20
-9.5310980188615666
42
0.41421356237308526
10
-79.537500000000051
20
-9.0310980188615773
10
-80.537500000000065
20
-9.0310980188615773
42
0.41421356237309959
10
-81.037500000000037
20
-9.5310980188615666
10
-81.037500000000051
20
-22.531098018861577
42
0.41421356237309759
10
-80.537500000000065
20
-23.031098018861567
0
LWPOLYLINE
5
130
100
AcDbEntity
8
0
100
AcDbPolyline
90
8
70
1
43
0.0
10
-223.86250000000007
20
-42.08109801886156
42
0.41421356237307427
10
-223.36250000000004
20
-41.58109801886156
10
-223.3625000000001
20
-28.581098018861574
42
0.41421356237311846
10
-223.86250000000007
20
-28.081098018861574
10
-236.86250000000007
20
-28.081098018861574
42
0.41421356237304557
10
-237.3625000000001
20
-28.581098018861574
10
-237.3625000000001
20
-41.58109801886156
42
0.41421356237312101
10
-236.86250000000007
20
-42.081098018861567
0
LWPOLYLINE
5
131
100
AcDbEntity
8
0
100
AcDbPolyline
90
8
70
1
43
0.0
10
-200.0500000000001
20
-99.231098018861573
42
0.41421356237308465
10
-199.55000000000007
20
-98.731098018861573
10
-199.5500000000001
20
-85.731098018861559
42
0.41421356237308465
10
-200.0500000000001
20
-85.231098018861559
10
-213.0500000000001
20
-85.231098018861573
42
0.41421356237307427
10
-213.55000000000007
20
-85.731098018861559
10
-213.55000000000007
20
-98.731098018861573
42
0.41421356237311585
10
-213.0500000000001
20
-99.231098018861573
0
LWPOLYLINE
5
132
100
AcDbEntity
8
0
100
AcDbPolyline
90
8
70
1
43
0.0
10
-109.56250000000006
20
-42.08109801886156
42
0.4142135623731002
10
-109.06250000000007
20
-41.58109801886156
10
-109.06250000000006
20
-28.581098018861574
42
0.41421356237307161
10
-109.56250000000006
20
-28.081098018861567
10
-122.56250000000006
20
-28.081098018861574
42
0.41421356237310542
10
-123.06250000000004
20
-28.581098018861574
10
-123.06250000000006
20
-41.58109801886156
42
0.41421356237309509
10
-122.56250000000006
20
-42.081098018861567
0
LWPOLYLINE
5
133
100
AcDbEntity
8
0
100
AcDbPolyline
90
8
70
1
43
0.0
10
-84.962500000000048
20
-41.58109801886156
42
0.41421356237307427
10
-84.462500000000048
20
-42.081098018861567
10
-71.462500000000063
20
-42.08109801886156
42
0.41421356237309509
10
-70.962500000000063
20
-41.58109801886156
10
-70.962500000000063
20
-28.581098018861574
42
0.41421356237310802
10
-71.462500000000077
20
-28.081098018861574
10
-84.462500000000048
20
-28.081098018861574
42
0.4142135623731002
10
-84.962500000000048
20
-28.581098018861574
0
LWPOLYLINE
5
134
100
AcDbEntity
8
0
100
AcDbPolyline
90
8
70
1
43
0.0
10
-119.08750000000006
20
-61.131098018861564
42
0.41421356237310542
10
-118.58750000000008
20
-60.631098018861564
10
-118.58750000000006
20
-47.631098018861557
42
0.41421356237307944
10
-119.08750000000006
20
-47.131098018861564
10
-132.08750000000006
20
-47.131098018861557
42
0.41421356237310542
10
-132.58750000000006
20
-47.631098018861557
10
-132.58750000000006
20
-60.631098018861564
42
0.4142135623731002
10
-132.08750000000006
20
-61.131098018861572
0
LWPOLYLINE
5
135
100
AcDbEntity
8
0
100
AcDbPolyline
90
8
70
1
43
0.0
10
-56.337500000000055
20
-23.031098018861577
42
0.41421356237309509
10
-55.837500000000055
20
-22.531098018861577
10
-55.837500000000055
20
-9.5310980188615666
42
0.41421356237308982
10
-56.337500000000048
20
-9.0310980188615666
10
-57.337500000000063
20
-9.0310980188615773
42
0.41421356237308526
10
-57.837500000000034
20
-9.5310980188615666
10
-57.837500000000055
20
-22.531098018861577
42
0.41421356237309759
10
-57.337500000000063
20
-23.031098018861577
0
LWPOLYLINE
5
136
100
AcDbEntity
8
0
100
AcDbPolyline
90
8
70
1
43
0.0
10
-181.00000000000009
20
-99.231098018861573
42
0.41421356237308465
10
-180.50000000000006
20
-98.731098018861573
10
-180.50000000000009
20
-85.731098018861559
42
0.41421356237308465
10
-181.00000000000009
20
-85.231098018861559
10
-194.00000000000006
20
-85.231098018861573
42
0.41421356237304296
10
-194.50000000000006
20
-85.731098018861559
10
-194.50000000000006
20
-98.731098018861573
42
0.41421356237308465
10
-194.00000000000006
20
-99.231098018861573
0
LWPOLYLINE
5
137
100
AcDbEntity
8
0
100
AcDbPolyline
90
8
70
1
43
0.0
10
-156.40000000000006
20
-98.731098018861573
42
0.4142135623730534
10
-155.90000000000006
20
-99.231098018861573
10
-142.90000000000006
20
-99.231098018861573
42
0.41421356237307427
10
-142.40000000000006
20
-98.731098018861573
10
-142.40000000000006
20
-85.731098018861559
42
0.41421356237307427
10
-142.90000000000006
20
-85.231098018861559
10
-155.90000000000006
20
-85.231098018861573
42
0.41421356237309509
10
-156.40000000000006
20
-85.731098018861559
0
LWPOLYLINE
5
138
100
AcDbEntity
8
0
100
AcDbPolyline
90
8
70
1
43
0.0
10
-219.10000000000008
20
-99.231098018861573
42
0.41421356237309509
10
-218.60000000000008
20
-98.731098018861573
10
-218.60000000000008
20
-85.731098018861559
42
0.41421356237309509
10
-219.10000000000008
20
-85.231098018861573
10
-232.10000000000008
20
-85.231098018861573
42
0.41421356237304296
10
-232.60000000000005
20
-85.731098018861559
10
-232.60000000000008
20
-98.731098018861573
42
0.41421356237308465
10
-232.10000000000008
20
-99.231098018861573
0
LWPOLYLINE
5
139
100
AcDbEntity
8
0
100
AcDbPolyline
90
8
70
1
43
0.0
10
-209.5750000000001
20
-80.181098018861547
42
0.41421356237310542
10
-209.07500000000013
20
-79.681098018861562
10
-209.0750000000001
20
-66.681098018861562
42
0.41421356237312101
10
-209.5750000000001
20
-66.181098018861562
10
-222.5750000000001
20
-66.181098018861547
42
0.41421356237313145
10
-223.07500000000007
20
-66.681098018861562
10
-223.07500000000007
20
-79.681098018861562
42
0.41421356237308465
10
-222.5750000000001
20
-80.181098018861562
0
LWPOLYLINE
5
140
100
AcDbEntity
8
0
100
AcDbPolyline
90
8
70
1
43
0.0
10
-190.52500000000009
20
-80.181098018861547
42
0.41421356237310542
10
-190.02500000000012
20
-79.681098018861562
10
-190.02500000000009
20
-66.681098018861562
42
0.41421356237312101
10
-190.52500000000009
20
-66.181098018861562
10
-203.52500000000009
20
-66.181098018861547
42
0.41421356237313145
10
-204.02500000000006
20
-66.681098018861562
10
-204.02500000000006
20
-79.681098018861562
42
0.41421356237308465
10
-203.52500000000009
20
-80.181098018861562
0
LWPOLYLINE
5
141
100
AcDbEntity
8
0
100
AcDbPolyline
90
8
70
1
43
0.0
10
-214.33750000000006
20
-61.131098018861564
42
0.41421356237307427
10
-213.83750000000003
20
-60.631098018861564
10
-213.83750000000009
20
-47.631098018861557
42
0.41421356237312101
10
-214.33750000000006
20
-47.131098018861564
10
-227.33750000000009
20
-47.131098018861557
42
0.4142135623730222
10
-227.83750000000009
20
-47.631098018861557
10
-227.83750000000009
20
-60.631098018861564
42
0.41421356237312629
10
-227.33750000000009
20
-61.131098018861572
0
LWPOLYLINE
5
142
100
AcDbEntity
8
0
100
AcDbPolyline
90
8
70
1
43
0.0
10
-208.78750000000008
20
-60.631098018861564
42
0.41421356237312629
10
-208.28750000000008
20
-61.13109801886155
10
-195.28750000000005
20
-61.131098018861564
42
0.41421356237307427
10
-194.78750000000005
20
-60.631098018861564
10
-194.78750000000005
20
-47.631098018861557
42
0.41421356237313667
10
-195.28750000000005
20
-47.131098018861564
10
-208.28750000000008
20
-47.131098018861557
42
0.4142135623730222
10
-208.78750000000008
20
-47.631098018861557
0
LWPOLYLINE
5
143
100
AcDbEntity
8
0
100
AcDbPolyline
90
8
70
1
43
0.0
10
-100.03750000000005
20
-61.131098018861564
42
0.41421356237310542
10
-99.537500000000065
20
-60.631098018861564
10
-99.537500000000065
20
-47.631098018861557
42
0.41421356237309509
10
-100.03750000000005
20
-47.131098018861564
10
-113.03750000000007
20
-47.131098018861557
42
0.41421356237310542
10
-113.53750000000007
20
-47.631098018861557
10
-113.53750000000007
20
-60.631098018861564
42
0.41421356237307944
10
-113.03750000000007
20
-61.131098018861572
0
LWPOLYLINE
5
144
100
AcDbEntity
8
0
100
AcDbPolyline
90
8
70
1
43
0.0
10
-255.40592472510068
20
-45.6169388006372
10
-255.40592472510068
20
-62.645257237085929
42
-0.41421356237313145
10
-255.90592472510068
20
-63.145257237085922
10
-261.9059247251007
20
-63.145257237085971
42
-0.41421356237299095
10
-262.4059247251007
20
-62.645257237085929
10
-262.40592472510065
20
-45.6169388006372
42
-0.4142135623730222
10
-261.9059247251007
20
-45.1169388006372
10
-255.90592472510068
20
-45.116938800637207
42
-0.41421356237312629
0
LWPOLYLINE
5
145
100
AcDbEntity
8
0
100
AcDbPolyline
90
8
70
1
43
0.0
10
-279.28192472510068
20
-45.6169388006372
10
-279.28192472510068
20
-62.645257237085929
42
-0.4142135623731471
10
-279.78192472510068
20
-63.145257237085929
10
-285.78192472510068
20
-63.145257237085971
42
-0.41421356237299095
10
-286.28192472510068
20
-62.645257237085929
10
-286.28192472510068
20
-45.6169388006372
42
-0.4142135623730222
10
-285.78192472510068
20
-45.1169388006372
10
-279.78192472510068
20
-45.116938800637186
42
-0.41421356237313667
0
LWPOLYLINE
5
146
100
AcDbEntity
8
0
100
AcDbPolyline
90
8
70
1
43
0.0
10
-238.15000000000009
20
-99.231098018861573
42
0.41421356237309509
10
-237.65000000000009
20
-98.731098018861573
10
-237.65000000000009
20
-85.731098018861559
42
0.41421356237309509
10
-238.15000000000009
20
-85.231098018861559
10
-251.15000000000009
20
-85.231098018861573
42
0.41421356237304296
10
-251.65000000000006
20
-85.731098018861559
10
-251.65000000000009
20
-98.731098018861573
42
0.41421356237308465
10
-251.15000000000009
20
-99.231098018861573
0
LWPOLYLINE
5
147
100
AcDbEntity
8
0
100
AcDbPolyline
90
8
70
1
43
0.0
10
-264.34375000000011
20
-61.131098018861564
42
0.4142135623730222
10
-263.84375000000011
20
-60.631098018861564
10
-263.84375000000011
20
-47.631098018861557
42
0.41421356237312629
10
-264.34375000000011
20
-47.131098018861564
10
-277.34375000000011
20
-47.131098018861557
42
0.41421356237307427
10
-277.84375000000011
20
-47.631098018861557
10
-277.84375000000011
20
-60.631098018861564
42
0.41421356237313667
10
-277.34375000000011
20
-61.131098018861564
0
LWPOLYLINE
5
148
100
AcDbEntity
8
0
100
AcDbPolyline
90
8
70
1
43
0.0
10
-241.46250000000009
20
-23.031098018861577
42
0.41421356237304557
10
-240.96250000000009
20
-22.531098018861577
10
-240.96250000000009
20
-9.5310980188615666
42
0.41421356237310153
10
-241.46250000000009
20
-9.0310980188615773
10
-242.46250000000006
20
-9.0310980188615773
42
0.4142135623730781
10
-242.96250000000009
20
-9.5310980188615666
10
-242.96250000000009
20
-22.531098018861577
42
0.41421356237313145
10
-242.46250000000006
20
-23.031098018861577
0
LWPOLYLINE
5
149
100
AcDbEntity
8
0
100
AcDbPolyline
90
8
70
1
43
0.0
10
-228.62500000000009
20
-80.181098018861547
42
0.41421356237312629
10
-228.12500000000006
20
-79.681098018861562
10
-228.12500000000006
20
-66.681098018861562
42
0.41421356237313145
10
-228.62500000000009
20
-66.181098018861562
10
-241.62500000000009
20
-66.181098018861547
42
0.41421356237312101
10
-242.12500000000009
20
-66.681098018861562
10
-242.12500000000009
20
-79.681098018861562
42
0.4142135623731002
10
-241.62500000000009
20
-80.181098018861604
0
LWPOLYLINE
5
150
100
AcDbEntity
8
0
100
AcDbPolyline
90
8
70
1
43
0.0
10
-104.80000000000005
20
-99.231098018861573
42
0.4142135623730534
10
-104.30000000000005
20
-98.731098018861573
10
-104.30000000000007
20
-85.731098018861559
42
0.41421356237309509
10
-104.80000000000005
20
-85.231098018861573
10
-117.80000000000007
20
-85.231098018861573
42
0.41421356237309509
10
-118.30000000000007
20
-85.731098018861559
10
-118.30000000000007
20
-98.731098018861573
42
0.4142135623730534
10
-117.80000000000007
20
-99.231098018861573
0
LWPOLYLINE
5
151
100
AcDbEntity
8
0
100
AcDbPolyline
90
8
70
1
43
0.0
10
-151.63750000000007
20
-60.631098018861564
42
0.4142135623731002
10
-151.13750000000007
20
-61.131098018861579
10
-138.13750000000007
20
-61.131098018861564
42
0.41421356237310542
10
-137.63750000000007
20
-60.631098018861564
10
-137.63750000000007
20
-47.631098018861557
42
0.41421356237307944
10
-138.13750000000007
20
-47.131098018861557
10
-151.13750000000007
20
-47.131098018861557
42
0.41421356237310542
10
-151.63750000000007
20
-47.631098018861557
0
LWPOLYLINE
5
152
100
AcDbEntity
8
0
100
AcDbPolyline
90
8
70
1
43
0.0
10
-80.987500000000068
20
-61.131098018861564
42
0.41421356237310542
10
-80.487500000000054
20
-60.631098018861564
10
-80.487500000000054
20
-47.631098018861557
42
0.41421356237311063
10
-80.987500000000082
20
-47.131098018861557
10
-93.987500000000068
20
-47.131098018861557
42
0.41421356237310542
10
-94.487500000000054
20
-47.631098018861557
10
-94.487500000000054
20
-60.631098018861564
42
0.41421356237311063
10
-93.987500000000068
20
-61.13109801886155
0
LWPOLYLINE
5
153
100
AcDbEntity
8
0
100
AcDbPolyline
90
8
70
1
43
0.0
10
-247.17500000000007
20
-66.681098018861562
10
-247.17500000000007
20
-79.681098018861562
42
-0.41421356237312629
10
-247.6750000000001
20
-80.181098018861547
10
-260.67500000000007
20
-80.181098018861576
42
-0.4142135623731002
10
-261.17500000000013
20
-79.681098018861562
10
-261.17500000000013
20
-66.681098018861562
42
-0.41421356237312101
10
-260.67500000000007
20
-66.181098018861547
10
-247.6750000000001
20
-66.181098018861562
42
-0.41421356237313145
0
LWPOLYLINE
5
154
100
AcDbEntity
8
0
100
AcDbPolyline
90
8
70
1
43
0.0
10
-128.61250000000007
20
-42.08109801886156
42
0.4142135623731002
10
-128.11250000000007
20
-41.58109801886156
10
-128.11250000000007
20
-28.581098018861574
42
0.41421356237307161
10
-128.61250000000007
20
-28.081098018861567
10
-141.61250000000007
20
-28.081098018861574
42
0.41421356237310542
10
-142.11250000000004
20
-28.581098018861574
10
-142.11250000000007
20
-41.58109801886156
42
0.41421356237309509
10
-141.61250000000007
20
-42.08109801886156
0
LWPOLYLINE
5
155
100
AcDbEntity
8
0
100
AcDbPolyline
90
8
70
1
43
0.0
10
-147.66250000000005
20
-42.08109801886156
42
0.4142135623731002
10
-147.16250000000005
20
-41.58109801886156
10
-147.16250000000005
20
-28.581098018861574
42
0.41421356237307161
10
-147.66250000000005
20
-28.081098018861567
10
-160.66250000000008
20
-28.081098018861574
42
0.41421356237307683
10
-161.16250000000005
20
-28.581098018861574
10
-161.16250000000005
20
-41.58109801886156
42
0.41421356237312101
10
-160.66250000000008
20
-42.08109801886156
0
LWPOLYLINE
5
156
100
AcDbEntity
8
0
100
AcDbPolyline
90
8
70
1
43
0.0
10
-161.45000000000007
20
-85.731098018861559
10
-161.45000000000005
20
-98.731098018861573
42
-0.41421356237308465
10
-161.95000000000007
20
-99.231098018861573
10
-174.95000000000007
20
-99.231098018861573
42
-0.41421356237309509
10
-175.4500000000001
20
-98.731098018861573
10
-175.4500000000001
20
-85.731098018861559
42
-0.41421356237307427
10
-174.95000000000007
20
-85.231098018861573
10
-161.95000000000007
20
-85.231098018861573
42
-0.41421356237308465
0
LWPOLYLINE
5
157
100
AcDbEntity
8
0
100
AcDbPolyline
90
8
70
1
43
0.0
10
-289.08750000000009
20
-23.031098018861577
42
0.41421356237307683
10
-288.58750000000003
20
-22.531098018861577
10
-288.58750000000009
20
-9.5310980188615666
42
0.41421356237313273
10
-289.08750000000009
20
-9.0310980188615773
10
-290.08750000000009
20
-9.0310980188615773
42
0.4142135623730781
10
-290.58750000000009
20
-9.5310980188615666
10
-290.58750000000009
20
-22.531098018861577
42
0.41421356237311846
10
-290.08750000000009
20
-23.031098018861549
0
LWPOLYLINE
5
158
100
AcDbEntity
8
0
100
AcDbPolyline
90
8
70
1
43
0.0
10
-171.47500000000008
20
-80.181098018861547
42
0.41421356237310542
10
-170.97500000000011
20
-79.681098018861562
10
-170.97500000000008
20
-66.681098018861562
42
0.41421356237312101
10
-171.47500000000008
20
-66.181098018861562
10
-184.47500000000005
20
-66.181098018861547
42
0.41421356237312101
10
-184.97500000000005
20
-66.681098018861562
10
-184.97500000000005
20
-79.681098018861562
42
0.4142135623731002
10
-184.47500000000005
20
-80.181098018861562
0
LWPOLYLINE
5
159
100
AcDbEntity
8
0
100
AcDbPolyline
90
8
70
1
43
0.0
10
-218.2625000000001
20
-23.031098018861577
42
0.41421356237304557
10
-217.76250000000007
20
-22.531098018861577
10
-217.76250000000007
20
-9.5310980188615666
42
0.41421356237310153
10
-218.2625000000001
20
-9.0310980188615595
10
-219.2625000000001
20
-9.0310980188615773
42
0.41421356237304691
10
-219.7625000000001
20
-9.5310980188615666
10
-219.7625000000001
20
-22.531098018861577
42
0.4142135623731002
10
-219.2625000000001
20
-23.031098018861577
0
LWPOLYLINE
5
160
100
AcDbEntity
8
0
100
AcDbPolyline
90
8
70
1
43
0.0
10
-185.7625000000001
20
-42.08109801886156
42
0.4142135623730222
10
-185.2625000000001
20
-41.58109801886156
10
-185.26250000000007
20
-28.581098018861574
42
0.4142135623731002
10
-185.7625000000001
20
-28.081098018861574
10
-198.7625000000001
20
-28.081098018861574
42
0.41421356237307683
10
-199.2625000000001
20
-28.581098018861574
10
-199.2625000000001
20
-41.58109801886156
42
0.41421356237313145
10
-198.7625000000001
20
-42.081098018861567
0
LWPOLYLINE
5
161
100
AcDbEntity
8
0
100
AcDbPolyline
90
8
70
1
43
0.0
10
-204.81250000000006
20
-42.08109801886156
42
0.41421356237307427
10
-204.31250000000003
20
-41.58109801886156
10
-204.31250000000009
20
-28.581098018861574
42
0.41421356237311846
10
-204.81250000000006
20
-28.081098018861603
10
-217.81250000000006
20
-28.081098018861574
42
0.41421356237304557
10
-218.31250000000009
20
-28.581098018861574
10
-218.31250000000009
20
-41.58109801886156
42
0.41421356237312101
10
-217.81250000000006
20
-42.08109801886156
0
LWPOLYLINE
5
162
100
AcDbEntity
8
0
100
AcDbPolyline
90
8
70
1
43
0.0
10
-95.275000000000048
20
-80.181098018861547
42
0.41421356237308982
10
-94.775000000000063
20
-79.681098018861562
10
-94.775000000000063
20
-66.681098018861562
42
0.4142135623731002
10
-95.275000000000048
20
-66.181098018861562
10
-108.27500000000006
20
-66.181098018861547
42
0.41421356237307427
10
-108.77500000000006
20
-66.681098018861562
10
-108.77500000000006
20
-79.681098018861562
42
0.41421356237305862
10
-108.27500000000006
20
-80.181098018861562
0
LWPOLYLINE
5
163
100
AcDbEntity
8
0
100
AcDbPolyline
90
8
70
1
43
0.0
10
-289.08750000000009
20
-80.181098018861547
42
0.41421356237312629
10
-288.58750000000009
20
-79.681098018861562
10
-288.58750000000009
20
-66.681098018861562
42
0.41421356237313145
10
-289.08750000000009
20
-66.181098018861562
10
-290.08750000000009
20
-66.181098018861547
42
0.41421356237313145
10
-290.58750000000009
20
-66.681098018861562
10
-290.58750000000009
20
-79.681098018861562
42
0.41421356237308465
10
-290.08750000000009
20
-80.181098018861562
0
LWPOLYLINE
5
164
100
AcDbEntity
8
0
100
AcDbPolyline
90
8
70
1
43
0.0
10
-265.8875000000001
20
-23.031098018861577
42
0.41421356237307683
10
-265.38750000000005
20
-22.531098018861577
10
-265.3875000000001
20
-9.5310980188615666
42
0.41421356237311718
10
-265.8875000000001
20
-9.0310980188615773
10
-266.8875000000001
20
-9.0310980188615773
42
0.4142135623730781
10
-267.3875000000001
20
-9.5310980188615666
10
-267.3875000000001
20
-22.531098018861577
42
0.41421356237313145
10
-266.8875000000001
20
-23.031098018861584
0
LWPOLYLINE
5
165
100
AcDbEntity
8
0
100
AcDbPolyline
90
8
70
1
43
0.0
10
-271.48750000000007
20
-80.181098018861547
42
0.41421356237310542
10
-270.98750000000007
20
-79.681098018861562
10
-270.98750000000007
20
-66.681098018861562
42
0.41421356237312101
10
-271.48750000000007
20
-66.181098018861562
10
-284.48750000000007
20
-66.181098018861547
42
0.41421356237313145
10
-284.98750000000007
20
-66.681098018861562
10
-284.98750000000007
20
-79.681098018861562
42
0.41421356237308465
10
-284.48750000000007
20
-80.181098018861562
0
LWPOLYLINE
5
166
100
AcDbEntity
8
0
100
AcDbPolyline
90
8
70
1
43
0.0
10
-10.212500000000052
20
-22.531098018861577
42
0.41421356237309243
10
-9.7125000000000501
20
-23.031098018861577
10
-8.7125000000000501
20
-23.031098018861577
42
0.41421356237309637
10
-8.2125000000000448
20
-22.531098018861577
10
-8.2125000000000483
20
-9.5310980188615666
42
0.41421356237309509
10
-8.7125000000000519
20
-9.0310980188615666
10
-9.7125000000000501
20
-9.0310980188615773
42
0.41421356237309509
10
-10.212500000000038
20
-9.5310980188615666
0
LWPOLYLINE
5
167
100
AcDbEntity
8
0
100
AcDbPolyline
90
8
70
1
43
0.0
10
-28.600000000000048
20
-99.231098018861573
42
0.41421356237307161
10
-28.100000000000044
20
-98.731098018861573
10
-28.100000000000051
20
-85.731098018861559
42
0.4142135623731002
10
-28.600000000000048
20
-85.231098018861573
10
-41.600000000000051
20
-85.231098018861573
42
0.41421356237309509
10
-42.100000000000065
20
-85.731098018861559
10
-42.100000000000051
20
-98.731098018861573
42
0.41421356237310542
10
-41.600000000000051
20
-99.231098018861573
0
LWPOLYLINE
5
168
100
AcDbEntity
8
0
100
AcDbPolyline
90
8
70
1
43
0.0
10
-31.912500000000055
20
-23.031098018861577
42
0.41421356237309509
10
-31.412500000000058
20
-22.531098018861577
10
-31.412500000000048
20
-9.5310980188615666
42
0.41421356237309048
10
-31.912500000000055
20
-9.0310980188615595
10
-32.912500000000051
20
-9.0310980188615773
42
0.41421356237309048
10
-33.412500000000037
20
-9.5310980188615666
10
-33.412500000000051
20
-22.531098018861577
42
0.41421356237310542
10
-32.912500000000037
20
-23.031098018861577
0
LWPOLYLINE
5
169
100
AcDbEntity
8
0
100
AcDbPolyline
90
8
70
1
43
0.0
10
-14.31250000000005
20
-80.181098018861547
42
0.41421356237310542
10
-13.812500000000069
20
-79.681098018861562
10
-13.81250000000005
20
-66.681098018861562
42
0.41421356237308726
10
-14.312500000000039
20
-66.181098018861576
10
-27.312500000000057
20
-66.181098018861547
42
0.41421356237309509
10
-27.812500000000053
20
-66.681098018861562
10
-27.812500000000053
20
-79.681098018861562
42
0.41421356237308726
10
-27.312500000000046
20
-80.181098018861576
0
LWPOLYLINE
5
170
100
AcDbEntity
8
0
100
AcDbPolyline
90
8
70
1
43
0.0
10
-9.5500000000000504
20
-99.231098018861573
42
0.41421356237307289
10
-9.0500000000000451
20
-98.731098018861573
10
-9.0500000000000487
20
-85.731098018861559
42
0.41421356237306645
10
-9.5500000000000362
20
-85.231098018861573
10
-22.550000000000054
20
-85.231098018861573
42
0.41421356237309759
10
-23.05000000000005
20
-85.731098018861559
10
-23.05000000000005
20
-98.731098018861573
42
0.41421356237310542
10
-22.550000000000043
20
-99.231098018861573
0
LWPOLYLINE
5
171
100
AcDbEntity
8
0
100
AcDbPolyline
90
8
70
1
43
0.0
10
-47.650000000000048
20
-99.231098018861573
42
0.41421356237307427
10
-47.150000000000041
20
-98.731098018861573
10
-47.150000000000048
20
-85.731098018861559
42
0.41421356237310542
10
-47.650000000000063
20
-85.231098018861573
10
-60.650000000000055
20
-85.231098018861573
42
0.4142135623731002
10
-61.150000000000034
20
-85.731098018861559
10
-61.150000000000055
20
-98.731098018861573
42
0.41421356237309509
10
-60.650000000000063
20
-99.231098018861573
0
LWPOLYLINE
5
172
100
AcDbEntity
8
0
100
AcDbPolyline
90
8
70
1
43
0.0
10
-70.675000000000068
20
-79.681098018861562
42
0.41421356237309509
10
-70.175000000000054
20
-80.181098018861576
10
-57.175000000000054
20
-80.181098018861547
42
0.41421356237311585
10
-56.675000000000097
20
-79.681098018861562
10
-56.675000000000054
20
-66.681098018861562
42
0.4142135623731002
10
-57.175000000000068
20
-66.181098018861562
10
-70.175000000000054
20
-66.181098018861547
42
0.41421356237311063
10
-70.675000000000082
20
-66.681098018861562
0
LWPOLYLINE
5
173
100
AcDbEntity
8
0
100
AcDbPolyline
90
8
70
1
43
0.0
10
-76.225000000000051
20
-80.181098018861547
42
0.41421356237311063
10
-75.72500000000008
20
-79.681098018861562
10
-75.725000000000065
20
-66.681098018861562
42
0.41421356237310542
10
-76.22500000000008
20
-66.181098018861562
10
-89.225000000000065
20
-66.181098018861547
42
0.41421356237309509
10
-89.72500000000008
20
-66.681098018861562
10
-89.725000000000051
20
-79.681098018861562
42
0.41421356237308465
10
-89.225000000000065
20
-80.181098018861562
0
LWPOLYLINE
5
174
100
AcDbEntity
8
0
100
AcDbPolyline
90
8
70
1
43
0.0
10
-85.750000000000043
20
-99.231098018861573
42
0.4142135623730534
10
-85.250000000000043
20
-98.731098018861573
10
-85.250000000000043
20
-85.731098018861559
42
0.4142135623730534
10
-85.750000000000043
20
-85.231098018861559
10
-98.750000000000057
20
-85.231098018861573
42
0.41421356237309509
10
-99.250000000000043
20
-85.731098018861559
10
-99.250000000000043
20
-98.731098018861573
42
0.41421356237309509
10
-98.750000000000057
20
-99.231098018861559
0
LWPOLYLINE
5
175
100
AcDbEntity
8
0
100
AcDbPolyline
90
8
70
1
43
0.0
10
-21.456250000000054
20
-42.08109801886156
42
0.41421356237309509
10
-20.956250000000054
20
-41.58109801886156
10
-20.956250000000054
20
-28.581098018861574
42
0.41421356237308982
10
-21.456250000000043
20
-28.081098018861574
10
-34.456250000000054
20
-28.081098018861574
42
0.41421356237309509
10
-34.956250000000054
20
-28.581098018861574
10
-34.956250000000047
20
-41.58109801886156
42
0.41421356237309509
10
-34.456250000000054
20
-42.08109801886156
0
LWPOLYLINE
5
176
100
AcDbEntity
8
0
100
AcDbPolyline
90
12
70
1
43
0.0
10
-19.011397089526817
20
-41.066938800637203
10
-19.018424725100669
20
-41.066938800637203
42
-0.41421356237309637
10
-19.518424725100669
20
-40.566938800637203
10
-19.518424725100669
20
-26.566938800637203
42
-0.41421356237309637
10
-19.018424725100669
20
-26.066938800637203
10
-13.018424725100671
20
-26.066938800637203
42
-0.41421356237309243
10
-12.518424725100669
20
-26.566938800637203
10
-12.518424725100667
20
-40.566938800637203
42
-0.41421356237309759
10
-13.018424725100671
20
-41.066938800637203
10
-13.025102910473297
20
-41.066938800637203
42
-0.05970836610523976
10
-13.143250000000052
20
-41.081098018861574
10
-18.893250000000048
20
-41.081098018861582
42
-0.059708366105195525
0
LWPOLYLINE
5
177
100
AcDbEntity
8
0
100
AcDbPolyline
90
8
70
1
43
0.0
10
-38.125000000000057
20
-80.181098018861547
42
0.41421356237309759
10
-37.625000000000078
20
-79.681098018861576
10
-37.625000000000057
20
-66.681098018861562
42
0.41421356237309509
10
-38.125000000000057
20
-66.181098018861562
10
-51.12500000000005
20
-66.181098018861547
42
0.41421356237310542
10
-51.625000000000071
20
-66.681098018861562
10
-51.625000000000057
20
-79.681098018861562
42
0.41421356237308465
10
-51.125000000000057
20
-80.181098018861562
0
LWPOLYLINE
5
178
100
AcDbEntity
8
0
100
AcDbPolyline
90
8
70
1
43
0.0
10
-66.700000000000045
20
-99.231098018861573
42
0.414213562373069
10
-66.200000000000031
20
-98.731098018861587
10
-66.20000000000006
20
-85.731098018861559
42
0.41421356237311585
10
-66.700000000000074
20
-85.231098018861573
10
-79.700000000000045
20
-85.231098018861573
42
0.41421356237311585
10
-80.200000000000045
20
-85.731098018861559
10
-80.200000000000045
20
-98.731098018861573
42
0.41421356237305862
10
-79.700000000000045
20
-99.231098018861573
0
LWPOLYLINE
5
179
100
AcDbEntity
8
0
100
AcDbPolyline
90
8
70
1
43
0.0
10
-267.3875000000001
20
-79.681098018861562
42
0.41421356237311063
10
-266.8875000000001
20
-80.181098018861604
10
-265.8875000000001
20
-80.181098018861547
42
0.41421356237312629
10
-265.3875000000001
20
-79.681098018861562
10
-265.3875000000001
20
-66.681098018861562
42
0.41421356237312101
10
-265.8875000000001
20
-66.181098018861604
10
-266.8875000000001
20
-66.181098018861547
42
0.41421356237313145
10
-267.3875000000001
20
-66.681098018861562
0
LWPOLYLINE
5
180
100
AcDbEntity
8
0
100
AcDbPolyline
90
8
70
1
43
0.0
10
-34.29375000000006
20
-61.131098018861564
42
0.41421356237309759
10
-33.793750000000053
20
-60.631098018861564
10
-33.793750000000045
20
-47.631098018861557
42
0.4142135623731002
10
-34.29375000000006
20
-47.131098018861557
10
-35.293750000000053
20
-47.131098018861557
42
0.41421356237309759
10
-35.793750000000045
20
-47.631098018861557
10
-35.793750000000053
20
-60.631098018861564
42
0.41421356237308726
10
-35.293750000000074
20
-61.131098018861564
0
LWPOLYLINE
5
181
100
AcDbEntity
8
0
100
AcDbPolyline
90
8
70
1
43
0.0
10
-8.7125000000000501
20
-80.181098018861547
42
0.41421356237310542
10
-8.2125000000000696
20
-79.681098018861562
10
-8.2125000000000483
20
-66.681098018861562
42
0.41421356237309509
10
-8.7125000000000519
20
-66.181098018861562
10
-9.7125000000000501
20
-66.181098018861547
42
0.41421356237309959
10
-10.212500000000038
20
-66.681098018861562
10
-10.212500000000052
20
-79.681098018861562
42
0.41421356237309892
10
-9.7125000000000661
20
-80.181098018861576
0
LWPOLYLINE
5
182
100
AcDbEntity
8
0
100
AcDbPolyline
90
8
70
1
43
0.0
10
-31.912500000000055
20
-80.181098018861547
42
0.41421356237309759
10
-31.41250000000008
20
-79.681098018861576
10
-31.412500000000048
20
-66.681098018861562
42
0.41421356237309509
10
-31.912500000000055
20
-66.181098018861562
10
-32.912500000000051
20
-66.181098018861547
42
0.41421356237309509
10
-33.412500000000037
20
-66.681098018861562
10
-33.412500000000051
20
-79.681098018861562
42
0.41421356237309243
10
-32.912500000000037
20
-80.181098018861576
0
LWPOLYLINE
5
183
100
AcDbEntity
8
0
100
AcDbPolyline
90
28
70
1
43
0.0
10
-288.66317472510065
20
-85.234999999999999
10
-288.66317472510059
20
-83.716938800637195
42
-0.41421356237310542
10
-288.16317472510065
20
-83.216938800637195
10
-282.16317472510065
20
-83.216938800637195
42
-0.41421356237313667
10
-281.66317472510065
20
-83.716938800637195
10
-281.66317472510065
20
-85.234999999999999
10
-279.78734385039149
20
-85.234999999999985
42
-0.031263447039322295
10
-279.72500000000008
20
-85.231098018861573
10
-266.72500000000008
20
-85.231098018861573
42
-0.031263447039533217
10
-266.66265614960855
20
-85.234999999999999
10
-264.78717472510073
20
-85.234999999999999
10
-264.78717472510073
20
-83.716938800637195
42
-0.41421356237313667
10
-264.28717472510067
20
-83.216938800637195
10
-258.28717472510067
20
-83.216938800637195
42
-0.41421356237313667
10
-257.78717472510067
20
-83.716938800637195
10
-257.78717472510067
20
-85.234999999999999
10
-257.19500000000011
20
-85.234999999999971
42
-0.41421356237310542
10
-256.69500000000011
20
-85.734999999999985
10
-256.69500000000016
20
-98.734999999999999
42
-0.41421356237310542
10
-257.19500000000011
20
-99.235000000000014
10
-270.19500000000011
20
-99.235000000000014
42
-0.031263447039322295
10
-270.25734385039152
20
-99.231098018861573
10
-276.18265614960876
20
-99.231098018861573
42
-0.031263447039357857
10
-276.24500000000012
20
-99.235000000000014
10
-289.24500000000012
20
-99.235000000000014
42
-0.41421356237313667
10
-289.74500000000012
20
-98.734999999999999
10
-289.74500000000012
20
-85.734999999999985
42
-0.41421356237313667
10
-289.24500000000012
20
-85.234999999999985
0
LWPOLYLINE
5
184
100
AcDbEntity
8
0
100
AcDbPolyline
90
22
70
1
43
0.0
10
-257.64342472510066
20
-28.081098018861574
10
-257.64342472510072
20
-26.566938800637203
42
-0.41421356237307683
10
-257.14342472510066
20
-26.066938800637203
10
-251.14342472510066
20
-26.066938800637189
42
-0.4142135623731002
10
-250.64342472510066
20
-26.566938800637203
10
-250.64342472510066
20
-28.081098018861574
10
-250.05625000000009
20
-28.081098018861557
42
-0.4142135623731002
10
-249.55625000000009
20
-28.581098018861574
10
-249.55625000000012
20
-41.58109801886156
42
-0.4142135623730222
10
-250.05625000000009
20
-42.08109801886156
10
-259.51390614960866
20
-42.081098018861567
42
-0.031263447039393086
10
-259.57625000000013
20
-42.085000000000001
10
-272.57625000000007
20
-42.085000000000008
42
-0.41421356237313667
10
-273.07625000000007
20
-41.585000000000001
10
-273.07625000000013
20
-28.585000000000001
42
-0.41421356237307683
10
-272.57625000000007
20
-28.085000000000004
10
-268.71859385039153
20
-28.085000000000004
42
-0.031263447039463987
10
-268.65625000000011
20
-28.081098018861574
10
-267.65625000000011
20
-28.081098018861567
42
-0.031263447039392864
10
-267.59390614960864
20
-28.085000000000004
10
-263.11859385039151
20
-28.085000000000004
42
-0.031263447039463987
10
-263.05625000000009
20
-28.081098018861574
0
LINE
5
185
100
AcDbEntity
8
0
100
AcDbLine
10
-281.51942472510075
20
-28.081098018861574
30
0
11
-281.51942472510075
21
-26.566938800637203
31
0
0
ARC
5
186
100
AcDbEntity
8
0
100
AcDbCircle
10
-281.01942472510069
20
-26.566938800637235
30
0
40
0.50000000000002931
210
0
220
-0
230
1
100
AcDbArc
50
90
51
180
0
LINE
5
187
100
AcDbEntity
8
0
100
AcDbLine
10
-281.01942472510069
20
-26.066938800637203
30
0
11
-275.01942472510069
21
-26.066938800637196
31
0
0
ARC
5
188
100
AcDbEntity
8
0
100
AcDbCircle
10
-275.01942472510063
20
-26.566938800637175
30
1.3721095392622909e-62
40
0.49999999999997158
210
-2.7235535719213221e-63
220
-5.6606014602621201e-49
230
1
100
AcDbArc
50
0
51
90.000000000006523
0
LINE
5
189
100
AcDbEntity
8
0
100
AcDbLine
10
-274.51942472510069
20
-26.566938800637203
30
0
11
-274.51942472510069
21
-40.566938800637203
31
0
0
ARC
5
190
100
AcDbEntity
8
0
100
AcDbCircle
10
-275.01942472510063
20
-40.566938800637224
30
0
40
0.49999999999993044
210
0
220
0
230
1
100
AcDbArc
50
-40.50498566267342
51
0
0
LINE
5
191
100
AcDbEntity
8
0
100
AcDbLine
10
-274.63925000000012
20
-40.891695907402685
30
0
11
-274.63925000000012
21
-41.550767932971659
31
4.7439890744537384e-80
0
SPLINE
5
192
100
AcDbEntity
8
0
100
AcDbSpline
70
0
71
3
72
14
73
10
74
0
42
0.000000001
43
0.0000000001
44
0.0000000001
40
0
40
0
40
0
40
0
40
0.021007352732917019
40
0.021007352732917019
40
0.04227027278241461
40
0.04227027278241461
40
0.062712058002518098
40
0.062712058002518098
40
0.083570929445807046
40
0.083570929445807046
40
0.083570929445807046
40
0.083570929445807046
10
-275.16958008589
20
-42.081098018861567
30
0
10
-275.09955557678029
20
-42.081098018861567
30
0
10
-275.0302194804417
20
-42.067229019138964
30
0
10
-274.90015977893415
20
-42.01302993908952
30
0
10
-274.84086117167794
20
-41.972925888646486
30
0
10
-274.74345636095131
20
-41.873740893260077
30
0
10
-274.70552687339921
20
-41.81637587338404
30
0
10
-274.65292363865973
20
-41.689153180903837
30
0
10
-274.63925000000012
20
-41.62029750444929
30
0
10
-274.63925000000012
20
-41.550767932971659
30
0
0
LINE
5
193
100
AcDbEntity
8
0
100
AcDbLine
10
-275.16958008589
20
-42.081098018861567
30
0
11
-289.25000000000011
21
-42.08109801886156
31
0
0
ARC
5
194
100
AcDbEntity
8
0
100
AcDbCircle
10
-289.25000000000017
20
-41.581098018861567
30
0
40
0.49999999999997158
210
0
220
0
230
1
100
AcDbArc
50
180
51
270.00000000000648
0
LINE
5
195
100
AcDbEntity
8
0
100
AcDbLine
10
-289.75000000000011
20
-41.58109801886156
30
0
11
-289.75000000000011
21
-28.581098018861574
31
9.4879781489074769e-80
0
ARC
5
196
100
AcDbEntity
8
0
100
AcDbCircle
10
-289.25000000000006
20
-28.581098018861621
30
0
40
0.50000000000004707
210
0
220
0
230
1
100
AcDbArc
50
90.000000000006523
51
180
0
LINE
5
197
100
AcDbEntity
8
0
100
AcDbLine
10
-289.25000000000011
20
-28.081098018861574
30
0
11
-281.51942472510075
21
-28.081098018861574
31
0
0
ENDSEC
0
SECTION
2
OBJECTS
0
DICTIONARY
5
C
100
AcDbDictionary
3
ACAD_GROUP
350
D
3
ACAD_MLINESTYLE
350
17
0
DICTIONARY
5
D
100
AcDbDictionary
0
DICTIONARY
5
1A
330
C
100
AcDbDictionary
0
DICTIONARY
5
17
100
AcDbDictionary
0
ENDSEC
0
EOF
